<?xml version="1.0" encoding="UTF-8" standalone="no"?>
<!DOCTYPE svg PUBLIC "-//W3C//DTD SVG 1.1//EN"
 "http://www.w3.org/Graphics/SVG/1.1/DTD/svg11.dtd">
<!-- Generated by graphviz version 2.28.0 (20120524.1247)
 -->
<!-- Title: Autopilot Pages: 1 -->
<svg width="636pt" height="530pt"
 viewBox="0.00 0.00 636.00 530.00" xmlns="http://www.w3.org/2000/svg" xmlns:xlink="http://www.w3.org/1999/xlink">
<g id="graph1" class="graph" transform="scale(1 1) rotate(0) translate(4 526)">
<title>Autopilot</title>
<polygon fill="white" stroke="white" points="-4,5 -4,-526 633,-526 633,5 -4,5"/>
<!-- Autopilot -->
<g id="node1" class="node"><title>Autopilot</title>
<polygon fill="#838b8b" stroke="#838b8b" points="447.5,-432 388.5,-432 376.5,-420 376.5,-12 388.5,-0 447.5,-0 459.5,-12 459.5,-420 447.5,-432"/>
<path fill="#838b8b" stroke="#838b8b" d="M388.5,-432C382.5,-432 376.5,-426 376.5,-420"/>
<path fill="#838b8b" stroke="#838b8b" d="M376.5,-12C376.5,-6 382.5,-0 388.5,-0"/>
<path fill="#838b8b" stroke="#838b8b" d="M447.5,-0C453.5,-0 459.5,-6 459.5,-12"/>
<path fill="#838b8b" stroke="#838b8b" d="M459.5,-420C459.5,-426 453.5,-432 447.5,-432"/>
<polyline fill="none" stroke="#838b8b" points="447.5,-432 388.5,-432 "/>
<path fill="none" stroke="#838b8b" d="M388.5,-432C382.5,-432 376.5,-426 376.5,-420"/>
<polyline fill="none" stroke="#838b8b" points="376.5,-420 376.5,-12 "/>
<path fill="none" stroke="#838b8b" d="M376.5,-12C376.5,-6 382.5,-0 388.5,-0"/>
<polyline fill="none" stroke="#838b8b" points="388.5,-0 447.5,-0 "/>
<path fill="none" stroke="#838b8b" d="M447.5,-0C453.5,-0 459.5,-6 459.5,-12"/>
<polyline fill="none" stroke="#838b8b" points="459.5,-12 459.5,-420 "/>
<path fill="none" stroke="#838b8b" d="M459.5,-420C459.5,-426 453.5,-432 447.5,-432"/>
<text text-anchor="middle" x="418" y="-212.3" font-family="Times,serif" font-size="14.00">Autopilot</text>
</g>
<!-- Throttle -->
<g id="node22" class="node"><title>Throttle</title>
<polygon fill="green" stroke="green" points="607.498,-387 540.031,-387 524.304,-375.594 508.229,-326.406 516.502,-315 583.969,-315 599.696,-326.406 615.771,-375.594 607.498,-387"/>
<path fill="green" stroke="green" d="M540.031,-387C534.031,-387 526.168,-381.297 524.304,-375.594"/>
<path fill="green" stroke="green" d="M508.229,-326.406C506.366,-320.703 510.502,-315 516.502,-315"/>
<path fill="green" stroke="green" d="M583.969,-315C589.969,-315 597.832,-320.703 599.696,-326.406"/>
<path fill="green" stroke="green" d="M615.771,-375.594C617.634,-381.297 613.498,-387 607.498,-387"/>
<polyline fill="none" stroke="green" points="607.498,-387 540.031,-387 "/>
<path fill="none" stroke="green" d="M540.031,-387C534.031,-387 526.168,-381.297 524.304,-375.594"/>
<polyline fill="none" stroke="green" points="524.304,-375.594 508.229,-326.406 "/>
<path fill="none" stroke="green" d="M508.229,-326.406C506.366,-320.703 510.502,-315 516.502,-315"/>
<polyline fill="none" stroke="green" points="516.502,-315 583.969,-315 "/>
<path fill="none" stroke="green" d="M583.969,-315C589.969,-315 597.832,-320.703 599.696,-326.406"/>
<polyline fill="none" stroke="green" points="599.696,-326.406 615.771,-375.594 "/>
<path fill="none" stroke="green" d="M615.771,-375.594C617.634,-381.297 613.498,-387 607.498,-387"/>
<text text-anchor="middle" x="562" y="-347.3" font-family="Times,serif" font-size="14.00">Throttle</text>
</g>
<!-- Autopilot&#45;&gt;Throttle -->
<g id="edge23" class="edge"><title>Autopilot&#45;&gt;Throttle</title>
<path fill="none" stroke="black" d="M459.609,-268.084C470.783,-281.082 483.331,-294.563 496,-306 496.946,-306.854 497.908,-307.704 498.885,-308.552"/>
<polygon fill="black" stroke="black" points="496.683,-311.272 506.615,-314.959 501.15,-305.883 496.683,-311.272"/>
</g>
<!-- Elevators -->
<g id="node24" class="node"><title>Elevators</title>
<polygon fill="green" stroke="green" points="615.518,-297 535.294,-297 519.106,-285.754 500.67,-236.246 508.482,-225 588.706,-225 604.894,-236.246 623.33,-285.754 615.518,-297"/>
<path fill="green" stroke="green" d="M535.294,-297C529.294,-297 521.2,-291.377 519.106,-285.754"/>
<path fill="green" stroke="green" d="M500.67,-236.246C498.576,-230.623 502.482,-225 508.482,-225"/>
<path fill="green" stroke="green" d="M588.706,-225C594.706,-225 602.8,-230.623 604.894,-236.246"/>
<path fill="green" stroke="green" d="M623.33,-285.754C625.424,-291.377 621.518,-297 615.518,-297"/>
<polyline fill="none" stroke="green" points="615.518,-297 535.294,-297 "/>
<path fill="none" stroke="green" d="M535.294,-297C529.294,-297 521.2,-291.377 519.106,-285.754"/>
<polyline fill="none" stroke="green" points="519.106,-285.754 500.67,-236.246 "/>
<path fill="none" stroke="green" d="M500.67,-236.246C498.576,-230.623 502.482,-225 508.482,-225"/>
<polyline fill="none" stroke="green" points="508.482,-225 588.706,-225 "/>
<path fill="none" stroke="green" d="M588.706,-225C594.706,-225 602.8,-230.623 604.894,-236.246"/>
<polyline fill="none" stroke="green" points="604.894,-236.246 623.33,-285.754 "/>
<path fill="none" stroke="green" d="M623.33,-285.754C625.424,-291.377 621.518,-297 615.518,-297"/>
<text text-anchor="middle" x="562" y="-257.3" font-family="Times,serif" font-size="14.00">Elevators</text>
</g>
<!-- Autopilot&#45;&gt;Elevators -->
<g id="edge25" class="edge"><title>Autopilot&#45;&gt;Elevators</title>
<path fill="none" stroke="black" d="M459.692,-228.895C470.192,-232.223 481.781,-235.895 493.257,-239.532"/>
<polygon fill="black" stroke="black" points="492.253,-242.885 502.843,-242.57 494.368,-236.212 492.253,-242.885"/>
</g>
<!-- Ailerons -->
<g id="node26" class="node"><title>Ailerons</title>
<polygon fill="green" stroke="green" points="608.592,-207 539.385,-207 523.593,-195.615 507.199,-146.385 515.408,-135 584.615,-135 600.407,-146.385 616.801,-195.615 608.592,-207"/>
<path fill="green" stroke="green" d="M539.385,-207C533.385,-207 525.489,-201.307 523.593,-195.615"/>
<path fill="green" stroke="green" d="M507.199,-146.385C505.303,-140.693 509.408,-135 515.408,-135"/>
<path fill="green" stroke="green" d="M584.615,-135C590.615,-135 598.511,-140.693 600.407,-146.385"/>
<path fill="green" stroke="green" d="M616.801,-195.615C618.697,-201.307 614.592,-207 608.592,-207"/>
<polyline fill="none" stroke="green" points="608.592,-207 539.385,-207 "/>
<path fill="none" stroke="green" d="M539.385,-207C533.385,-207 525.489,-201.307 523.593,-195.615"/>
<polyline fill="none" stroke="green" points="523.593,-195.615 507.199,-146.385 "/>
<path fill="none" stroke="green" d="M507.199,-146.385C505.303,-140.693 509.408,-135 515.408,-135"/>
<polyline fill="none" stroke="green" points="515.408,-135 584.615,-135 "/>
<path fill="none" stroke="green" d="M584.615,-135C590.615,-135 598.511,-140.693 600.407,-146.385"/>
<polyline fill="none" stroke="green" points="600.407,-146.385 616.801,-195.615 "/>
<path fill="none" stroke="green" d="M616.801,-195.615C618.697,-201.307 614.592,-207 608.592,-207"/>
<text text-anchor="middle" x="562" y="-167.3" font-family="Times,serif" font-size="14.00">Ailerons</text>
</g>
<!-- Autopilot&#45;&gt;Ailerons -->
<g id="edge27" class="edge"><title>Autopilot&#45;&gt;Ailerons</title>
<path fill="none" stroke="black" d="M459.692,-203.105C475.166,-198.201 493.004,-192.548 509.359,-187.365"/>
<polygon fill="black" stroke="black" points="510.84,-190.567 519.316,-184.21 508.726,-183.894 510.84,-190.567"/>
</g>
<!-- Rudder -->
<g id="node28" class="node"><title>Rudder</title>
<polygon fill="green" stroke="green" points="603.261,-117 542.535,-117 527.058,-105.515 512.216,-56.4853 520.739,-45 581.465,-45 596.942,-56.4853 611.784,-105.515 603.261,-117"/>
<path fill="green" stroke="green" d="M542.535,-117C536.535,-117 528.796,-111.257 527.058,-105.515"/>
<path fill="green" stroke="green" d="M512.216,-56.4853C510.477,-50.7426 514.739,-45 520.739,-45"/>
<path fill="green" stroke="green" d="M581.465,-45C587.465,-45 595.204,-50.7426 596.942,-56.4853"/>
<path fill="green" stroke="green" d="M611.784,-105.515C613.523,-111.257 609.261,-117 603.261,-117"/>
<polyline fill="none" stroke="green" points="603.261,-117 542.535,-117 "/>
<path fill="none" stroke="green" d="M542.535,-117C536.535,-117 528.796,-111.257 527.058,-105.515"/>
<polyline fill="none" stroke="green" points="527.058,-105.515 512.216,-56.4853 "/>
<path fill="none" stroke="green" d="M512.216,-56.4853C510.477,-50.7426 514.739,-45 520.739,-45"/>
<polyline fill="none" stroke="green" points="520.739,-45 581.465,-45 "/>
<path fill="none" stroke="green" d="M581.465,-45C587.465,-45 595.204,-50.7426 596.942,-56.4853"/>
<polyline fill="none" stroke="green" points="596.942,-56.4853 611.784,-105.515 "/>
<path fill="none" stroke="green" d="M611.784,-105.515C613.523,-111.257 609.261,-117 603.261,-117"/>
<text text-anchor="middle" x="562" y="-77.3" font-family="Times,serif" font-size="14.00">Rudder</text>
</g>
<!-- Autopilot&#45;&gt;Rudder -->
<g id="edge29" class="edge"><title>Autopilot&#45;&gt;Rudder</title>
<path fill="none" stroke="black" d="M459.609,-163.916C470.783,-150.918 483.331,-137.437 496,-126 502.59,-120.051 510,-114.235 517.395,-108.865"/>
<polygon fill="black" stroke="black" points="519.863,-111.407 526.019,-102.784 515.829,-105.686 519.863,-111.407"/>
</g>
<!-- Velocity Vector -->
<g id="node2" class="node"><title>Velocity Vector</title>
<polygon fill="#c1cdcd" stroke="#c1cdcd" points="327.5,-432 226.5,-432 214.5,-420 214.5,-372 226.5,-360 327.5,-360 339.5,-372 339.5,-420 327.5,-432"/>
<path fill="#c1cdcd" stroke="#c1cdcd" d="M226.5,-432C220.5,-432 214.5,-426 214.5,-420"/>
<path fill="#c1cdcd" stroke="#c1cdcd" d="M214.5,-372C214.5,-366 220.5,-360 226.5,-360"/>
<path fill="#c1cdcd" stroke="#c1cdcd" d="M327.5,-360C333.5,-360 339.5,-366 339.5,-372"/>
<path fill="#c1cdcd" stroke="#c1cdcd" d="M339.5,-420C339.5,-426 333.5,-432 327.5,-432"/>
<polyline fill="none" stroke="#c1cdcd" points="327.5,-432 226.5,-432 "/>
<path fill="none" stroke="#c1cdcd" d="M226.5,-432C220.5,-432 214.5,-426 214.5,-420"/>
<polyline fill="none" stroke="#c1cdcd" points="214.5,-420 214.5,-372 "/>
<path fill="none" stroke="#c1cdcd" d="M214.5,-372C214.5,-366 220.5,-360 226.5,-360"/>
<polyline fill="none" stroke="#c1cdcd" points="226.5,-360 327.5,-360 "/>
<path fill="none" stroke="#c1cdcd" d="M327.5,-360C333.5,-360 339.5,-366 339.5,-372"/>
<polyline fill="none" stroke="#c1cdcd" points="339.5,-372 339.5,-420 "/>
<path fill="none" stroke="#c1cdcd" d="M339.5,-420C339.5,-426 333.5,-432 327.5,-432"/>
<text text-anchor="middle" x="277" y="-392.3" font-family="Times,serif" font-size="14.00">Velocity Vector</text>
</g>
<!-- Velocity Vector&#45;&gt;Autopilot -->
<g id="edge5" class="edge"><title>Velocity Vector&#45;&gt;Autopilot</title>
<path fill="none" stroke="black" d="M331.116,-359.936C334.254,-357.057 337.248,-354.071 340,-351 351.365,-338.318 361.806,-323.683 371.088,-308.83"/>
<polygon fill="black" stroke="black" points="374.208,-310.435 376.417,-300.073 368.229,-306.796 374.208,-310.435"/>
</g>
<!-- Altitude -->
<g id="node3" class="node"><title>Altitude</title>
<polygon fill="#c1cdcd" stroke="#c1cdcd" points="302,-252 252,-252 240,-240 240,-192 252,-180 302,-180 314,-192 314,-240 302,-252"/>
<path fill="#c1cdcd" stroke="#c1cdcd" d="M252,-252C246,-252 240,-246 240,-240"/>
<path fill="#c1cdcd" stroke="#c1cdcd" d="M240,-192C240,-186 246,-180 252,-180"/>
<path fill="#c1cdcd" stroke="#c1cdcd" d="M302,-180C308,-180 314,-186 314,-192"/>
<path fill="#c1cdcd" stroke="#c1cdcd" d="M314,-240C314,-246 308,-252 302,-252"/>
<polyline fill="none" stroke="#c1cdcd" points="302,-252 252,-252 "/>
<path fill="none" stroke="#c1cdcd" d="M252,-252C246,-252 240,-246 240,-240"/>
<polyline fill="none" stroke="#c1cdcd" points="240,-240 240,-192 "/>
<path fill="none" stroke="#c1cdcd" d="M240,-192C240,-186 246,-180 252,-180"/>
<polyline fill="none" stroke="#c1cdcd" points="252,-180 302,-180 "/>
<path fill="none" stroke="#c1cdcd" d="M302,-180C308,-180 314,-186 314,-192"/>
<polyline fill="none" stroke="#c1cdcd" points="314,-192 314,-240 "/>
<path fill="none" stroke="#c1cdcd" d="M314,-240C314,-246 308,-252 302,-252"/>
<text text-anchor="middle" x="277" y="-212.3" font-family="Times,serif" font-size="14.00">Altitude</text>
</g>
<!-- Altitude&#45;&gt;Autopilot -->
<g id="edge13" class="edge"><title>Altitude&#45;&gt;Autopilot</title>
<path fill="none" stroke="black" d="M314.158,-216C329.879,-216 348.582,-216 365.701,-216"/>
<polygon fill="black" stroke="black" points="366.115,-219.5 376.115,-216 366.115,-212.5 366.115,-219.5"/>
</g>
<!-- Longitude\n&amp;\nLatitude -->
<g id="node4" class="node"><title>Longitude\n&amp;\nLatitude</title>
<polygon fill="#c1cdcd" stroke="#c1cdcd" points="309.5,-162 244.5,-162 232.5,-150 232.5,-102 244.5,-90 309.5,-90 321.5,-102 321.5,-150 309.5,-162"/>
<path fill="#c1cdcd" stroke="#c1cdcd" d="M244.5,-162C238.5,-162 232.5,-156 232.5,-150"/>
<path fill="#c1cdcd" stroke="#c1cdcd" d="M232.5,-102C232.5,-96 238.5,-90 244.5,-90"/>
<path fill="#c1cdcd" stroke="#c1cdcd" d="M309.5,-90C315.5,-90 321.5,-96 321.5,-102"/>
<path fill="#c1cdcd" stroke="#c1cdcd" d="M321.5,-150C321.5,-156 315.5,-162 309.5,-162"/>
<polyline fill="none" stroke="#c1cdcd" points="309.5,-162 244.5,-162 "/>
<path fill="none" stroke="#c1cdcd" d="M244.5,-162C238.5,-162 232.5,-156 232.5,-150"/>
<polyline fill="none" stroke="#c1cdcd" points="232.5,-150 232.5,-102 "/>
<path fill="none" stroke="#c1cdcd" d="M232.5,-102C232.5,-96 238.5,-90 244.5,-90"/>
<polyline fill="none" stroke="#c1cdcd" points="244.5,-90 309.5,-90 "/>
<path fill="none" stroke="#c1cdcd" d="M309.5,-90C315.5,-90 321.5,-96 321.5,-102"/>
<polyline fill="none" stroke="#c1cdcd" points="321.5,-102 321.5,-150 "/>
<path fill="none" stroke="#c1cdcd" d="M321.5,-150C321.5,-156 315.5,-162 309.5,-162"/>
<text text-anchor="middle" x="277" y="-137.3" font-family="Times,serif" font-size="14.00">Longitude</text>
<text text-anchor="middle" x="277" y="-122.3" font-family="Times,serif" font-size="14.00">&amp;</text>
<text text-anchor="middle" x="277" y="-107.3" font-family="Times,serif" font-size="14.00">Latitude</text>
</g>
<!-- Longitude\n&amp;\nLatitude&#45;&gt;Autopilot -->
<g id="edge16" class="edge"><title>Longitude\n&amp;\nLatitude&#45;&gt;Autopilot</title>
<path fill="none" stroke="black" d="M321.599,-154.23C336.241,-163.71 352.673,-174.35 367.72,-184.092"/>
<polygon fill="black" stroke="black" points="366.099,-187.212 376.395,-189.709 369.904,-181.336 366.099,-187.212"/>
</g>
<!-- Heading -->
<g id="node5" class="node"><title>Heading</title>
<polygon fill="#c1cdcd" stroke="#c1cdcd" points="303.5,-72 250.5,-72 238.5,-60 238.5,-12 250.5,-0 303.5,-0 315.5,-12 315.5,-60 303.5,-72"/>
<path fill="#c1cdcd" stroke="#c1cdcd" d="M250.5,-72C244.5,-72 238.5,-66 238.5,-60"/>
<path fill="#c1cdcd" stroke="#c1cdcd" d="M238.5,-12C238.5,-6 244.5,-0 250.5,-0"/>
<path fill="#c1cdcd" stroke="#c1cdcd" d="M303.5,-0C309.5,-0 315.5,-6 315.5,-12"/>
<path fill="#c1cdcd" stroke="#c1cdcd" d="M315.5,-60C315.5,-66 309.5,-72 303.5,-72"/>
<polyline fill="none" stroke="#c1cdcd" points="303.5,-72 250.5,-72 "/>
<path fill="none" stroke="#c1cdcd" d="M250.5,-72C244.5,-72 238.5,-66 238.5,-60"/>
<polyline fill="none" stroke="#c1cdcd" points="238.5,-60 238.5,-12 "/>
<path fill="none" stroke="#c1cdcd" d="M238.5,-12C238.5,-6 244.5,-0 250.5,-0"/>
<polyline fill="none" stroke="#c1cdcd" points="250.5,-0 303.5,-0 "/>
<path fill="none" stroke="#c1cdcd" d="M303.5,-0C309.5,-0 315.5,-6 315.5,-12"/>
<polyline fill="none" stroke="#c1cdcd" points="315.5,-12 315.5,-60 "/>
<path fill="none" stroke="#c1cdcd" d="M315.5,-60C315.5,-66 309.5,-72 303.5,-72"/>
<text text-anchor="middle" x="277" y="-32.3" font-family="Times,serif" font-size="14.00">Heading</text>
</g>
<!-- Heading&#45;&gt;Autopilot -->
<g id="edge8" class="edge"><title>Heading&#45;&gt;Autopilot</title>
<path fill="none" stroke="black" d="M315.551,-59.3268C324.182,-65.7098 332.899,-73.0758 340,-81 351.365,-93.6823 361.806,-108.317 371.088,-123.17"/>
<polygon fill="black" stroke="black" points="368.229,-125.204 376.417,-131.927 374.208,-121.565 368.229,-125.204"/>
</g>
<!-- Orientation -->
<g id="node6" class="node"><title>Orientation</title>
<polygon fill="#c1cdcd" stroke="#c1cdcd" points="314,-342 240,-342 228,-330 228,-282 240,-270 314,-270 326,-282 326,-330 314,-342"/>
<path fill="#c1cdcd" stroke="#c1cdcd" d="M240,-342C234,-342 228,-336 228,-330"/>
<path fill="#c1cdcd" stroke="#c1cdcd" d="M228,-282C228,-276 234,-270 240,-270"/>
<path fill="#c1cdcd" stroke="#c1cdcd" d="M314,-270C320,-270 326,-276 326,-282"/>
<path fill="#c1cdcd" stroke="#c1cdcd" d="M326,-330C326,-336 320,-342 314,-342"/>
<polyline fill="none" stroke="#c1cdcd" points="314,-342 240,-342 "/>
<path fill="none" stroke="#c1cdcd" d="M240,-342C234,-342 228,-336 228,-330"/>
<polyline fill="none" stroke="#c1cdcd" points="228,-330 228,-282 "/>
<path fill="none" stroke="#c1cdcd" d="M228,-282C228,-276 234,-270 240,-270"/>
<polyline fill="none" stroke="#c1cdcd" points="240,-270 314,-270 "/>
<path fill="none" stroke="#c1cdcd" d="M314,-270C320,-270 326,-276 326,-282"/>
<polyline fill="none" stroke="#c1cdcd" points="326,-282 326,-330 "/>
<path fill="none" stroke="#c1cdcd" d="M326,-330C326,-336 320,-342 314,-342"/>
<text text-anchor="middle" x="277" y="-302.3" font-family="Times,serif" font-size="14.00">Orientation</text>
</g>
<!-- Orientation&#45;&gt;Autopilot -->
<g id="edge21" class="edge"><title>Orientation&#45;&gt;Autopilot</title>
<path fill="none" stroke="black" d="M326.225,-274.775C339.604,-266.112 354.147,-256.696 367.593,-247.99"/>
<polygon fill="black" stroke="black" points="369.754,-250.76 376.246,-242.387 365.95,-244.884 369.754,-250.76"/>
</g>
<!-- Gyro -->
<g id="node7" class="node"><title>Gyro</title>
<ellipse fill="#b2dfee" stroke="#b2dfee" cx="89" cy="-306" rx="73.1859" ry="36"/>
<text text-anchor="start" x="28" y="-303.3" font-family="Times,serif" font-size="14.00">Gyroscope(γ,θ,α)</text>
</g>
<!-- Gyro&#45;&gt;Velocity Vector -->
<g id="edge4" class="edge"><title>Gyro&#45;&gt;Velocity Vector</title>
<path fill="none" stroke="black" d="M141.811,-331.07C161.381,-340.539 184,-351.484 205.026,-361.658"/>
<polygon fill="black" stroke="black" points="203.714,-364.911 214.24,-366.116 206.763,-358.61 203.714,-364.911"/>
</g>
<!-- Gyro&#45;&gt;Orientation -->
<g id="edge20" class="edge"><title>Gyro&#45;&gt;Orientation</title>
<path fill="none" stroke="black" d="M162.445,-306C180.778,-306 200.232,-306 217.762,-306"/>
<polygon fill="black" stroke="black" points="217.838,-309.5 227.838,-306 217.838,-302.5 217.838,-309.5"/>
</g>
<!-- Accelerometer\n(x,y,z) -->
<g id="node8" class="node"><title>Accelerometer\n(x,y,z)</title>
<ellipse fill="#b2dfee" stroke="#b2dfee" cx="89" cy="-486" rx="71.6342" ry="36"/>
<text text-anchor="middle" x="89" y="-489.8" font-family="Times,serif" font-size="14.00">Accelerometer</text>
<text text-anchor="middle" x="89" y="-474.8" font-family="Times,serif" font-size="14.00">(x,y,z)</text>
</g>
<!-- Accelerometer\n(x,y,z)&#45;&gt;Velocity Vector -->
<g id="edge2" class="edge"><title>Accelerometer\n(x,y,z)&#45;&gt;Velocity Vector</title>
<path fill="none" stroke="black" d="M141.318,-461.169C160.988,-451.651 183.795,-440.615 204.986,-430.361"/>
<polygon fill="black" stroke="black" points="206.795,-433.374 214.273,-425.868 203.747,-427.073 206.795,-433.374"/>
</g>
<!-- Magnetometer -->
<g id="node11" class="node"><title>Magnetometer</title>
<ellipse fill="#b2dfee" stroke="#b2dfee" cx="89" cy="-36" rx="64.8011" ry="36"/>
<text text-anchor="middle" x="89" y="-32.3" font-family="Times,serif" font-size="14.00">Magnetometer</text>
</g>
<!-- Magnetometer&#45;&gt;Heading -->
<g id="edge7" class="edge"><title>Magnetometer&#45;&gt;Heading</title>
<path fill="none" stroke="black" d="M154.011,-36C178.433,-36 205.819,-36 228.446,-36"/>
<polygon fill="black" stroke="black" points="228.479,-39.5001 238.479,-36 228.479,-32.5001 228.479,-39.5001"/>
</g>
<!-- Airspeed Sensor -->
<g id="node13" class="node"><title>Airspeed Sensor</title>
<ellipse fill="#b2dfee" stroke="#b2dfee" cx="89" cy="-396" rx="70.9097" ry="36"/>
<text text-anchor="middle" x="89" y="-392.3" font-family="Times,serif" font-size="14.00">Airspeed Sensor</text>
</g>
<!-- Airspeed Sensor&#45;&gt;Velocity Vector -->
<g id="edge10" class="edge"><title>Airspeed Sensor&#45;&gt;Velocity Vector</title>
<path fill="none" stroke="black" d="M159.789,-396C174.222,-396 189.452,-396 203.963,-396"/>
<polygon fill="black" stroke="black" points="204.382,-399.5 214.382,-396 204.382,-392.5 204.382,-399.5"/>
</g>
<!-- Barometric Sensor\n(Course) -->
<g id="node15" class="node"><title>Barometric Sensor\n(Course)</title>
<ellipse fill="#b2dfee" stroke="#b2dfee" cx="89" cy="-216" rx="88.7764" ry="36"/>
<text text-anchor="middle" x="89" y="-219.8" font-family="Times,serif" font-size="14.00">Barometric Sensor</text>
<text text-anchor="middle" x="89" y="-204.8" font-family="Times,serif" font-size="14.00">(Course)</text>
</g>
<!-- Barometric Sensor\n(Course)&#45;&gt;Altitude -->
<g id="edge12" class="edge"><title>Barometric Sensor\n(Course)&#45;&gt;Altitude</title>
<path fill="none" stroke="black" d="M178.098,-216C195.797,-216 213.734,-216 229.335,-216"/>
<polygon fill="black" stroke="black" points="229.73,-219.5 239.73,-216 229.73,-212.5 229.73,-219.5"/>
</g>
<!-- GPS -->
<g id="node17" class="node"><title>GPS</title>
<ellipse fill="#b2dfee" stroke="#b2dfee" cx="89" cy="-126" rx="27" ry="36"/>
<text text-anchor="middle" x="89" y="-122.3" font-family="Times,serif" font-size="14.00">GPS</text>
</g>
<!-- GPS&#45;&gt;Altitude -->
<g id="edge18" class="edge"><title>GPS&#45;&gt;Altitude</title>
<path fill="none" stroke="black" d="M114.699,-137.951C144.09,-152.173 193.765,-176.209 230.24,-193.858"/>
<polygon fill="black" stroke="black" points="229.152,-197.22 239.678,-198.425 232.201,-190.919 229.152,-197.22"/>
</g>
<!-- GPS&#45;&gt;Longitude\n&amp;\nLatitude -->
<g id="edge15" class="edge"><title>GPS&#45;&gt;Longitude\n&amp;\nLatitude</title>
<path fill="none" stroke="black" d="M116.255,-126C143.688,-126 187.5,-126 222.308,-126"/>
<polygon fill="black" stroke="black" points="222.328,-129.5 232.328,-126 222.328,-122.5 222.328,-129.5"/>
</g>
</g>
</svg>
