  0
SECTION
  2
HEADER
  9
$ACADVER
  1
AC1014
  9
$HANDSEED
  5
FFFF
  9
$MEASUREMENT
 70
     1
  0
ENDSEC
  0
SECTION
  2
TABLES
  0
TABLE
  2
VPORT
  5
8
330
0
100
AcDbSymbolTable
 70
     4
  0
VPORT
  5
2E
330
8
100
AcDbSymbolTableRecord
100
AcDbViewportTableRecord
  2
*ACTIVE
 70
     0
 10
0.0
 20
0.0
 11
1.0
 21
1.0
 12
210.0
 22
148.5
 13
0.0
 23
0.0
 14
10.0
 24
10.0
 15
10.0
 25
10.0
 16
0.0
 26
0.0
 36
1.0
 17
0.0
 27
0.0
 37
0.0
 40
341.0
 41
1.24
 42
50.0
 43
0.0
 44
0.0
 50
0.0
 51
0.0
 71
     0
 72
   100
 73
     1
 74
     3
 75
     0
 76
     0
 77
     0
 78
     0
  0
ENDTAB
  0
TABLE
  2
LTYPE
  5
5
330
0
100
AcDbSymbolTable
 70
     1
  0
LTYPE
  5
14
330
5
100
AcDbSymbolTableRecord
100
AcDbLinetypeTableRecord
  2
BYBLOCK
 70
     0
  3

 72
    65
 73
     0
 40
0.0
  0
LTYPE
  5
15
330
5
100
AcDbSymbolTableRecord
100
AcDbLinetypeTableRecord
  2
BYLAYER
 70
     0
  3

 72
    65
 73
     0
 40
0.0
  0
LTYPE
  5
16
330
5
100
AcDbSymbolTableRecord
100
AcDbLinetypeTableRecord
  2
CONTINUOUS
 70
     0
  3
Solid line
 72
    65
 73
     0
 40
0.0
  0
ENDTAB
  0
TABLE
  2
LAYER
  5
2
100
AcDbSymbolTable
 70
2
  0
LAYER
  5
50
100
AcDbSymbolTableRecord
100
AcDbLayerTableRecord
  2
0
 70
0
  6
CONTINUOUS
  0
LAYER
  5
51
100
AcDbSymbolTableRecord
100
AcDbLayerTableRecord
  2
bullhead-vector-2
 70
0
  6
CONTINUOUS
  0
ENDTAB
  0
TABLE
  2
STYLE
  5
3
330
0
100
AcDbSymbolTable
 70
     1
  0
STYLE
  5
11
330
3
100
AcDbSymbolTableRecord
100
AcDbTextStyleTableRecord
  2
STANDARD
 70
     0
 40
0.0
 41
1.0
 50
0.0
 71
     0
 42
2.5
  3
txt
  4

  0
ENDTAB
  0
TABLE
  2
VIEW
  5
6
330
0
100
AcDbSymbolTable
 70
     0
  0
ENDTAB
  0
TABLE
  2
UCS
  5
7
330
0
100
AcDbSymbolTable
 70
     0
  0
ENDTAB
  0
TABLE
  2
APPID
  5
9
330
0
100
AcDbSymbolTable
 70
     2
  0
APPID
  5
12
330
9
100
AcDbSymbolTableRecord
100
AcDbRegAppTableRecord
  2
ACAD
 70
     0
  0
ENDTAB
  0
TABLE
  2
DIMSTYLE
  5
A
330
0
100
AcDbSymbolTable
 70
     1
  0
DIMSTYLE
105
27
330
A
100
AcDbSymbolTableRecord
100
AcDbDimStyleTableRecord
  2
ISO-25
 70
     0
  3

  4

  5

  6

  7

 40
1.0
 41
2.5
 42
0.625
 43
3.75
 44
1.25
 45
0.0
 46
0.0
 47
0.0
 48
0.0
140
2.5
141
2.5
142
0.0
143
0.03937007874016
144
1.0
145
0.0
146
1.0
147
0.625
 71
     0
 72
     0
 73
     0
 74
     0
 75
     0
 76
     0
 77
     1
 78
     8
170
     0
171
     3
172
     1
173
     0
174
     0
175
     0
176
     0
177
     0
178
     0
270
     2
271
     2
272
     2
273
     2
274
     3
340
11
275
     0
280
     0
281
     0
282
     0
283
     0
284
     8
285
     0
286
     0
287
     3
288
     0
  0
ENDTAB
  0
TABLE
  2
BLOCK_RECORD
  5
1
330
0
100
AcDbSymbolTable
 70
     1
  0
BLOCK_RECORD
  5
1F
330
1
100
AcDbSymbolTableRecord
100
AcDbBlockTableRecord
  2
*MODEL_SPACE
  0
BLOCK_RECORD
  5
1B
330
1
100
AcDbSymbolTableRecord
100
AcDbBlockTableRecord
  2
*PAPER_SPACE
  0
ENDTAB
  0
ENDSEC
  0
SECTION
  2
BLOCKS
  0
BLOCK
  5
20
330
1F
100
AcDbEntity
  8
0
100
AcDbBlockBegin
  2
*MODEL_SPACE
 70
     0
 10
0.0
 20
0.0
 30
0.0
  3
*MODEL_SPACE
  1

  0
ENDBLK
  5
21
330
1F
100
AcDbEntity
  8
0
100
AcDbBlockEnd
  0
BLOCK
  5
1C
330
1B
100
AcDbEntity
 67
     1
  8
0
100
AcDbBlockBegin
  2
*PAPER_SPACE
  1

  0
ENDBLK
  5
1D
330
1B
100
AcDbEntity
 67
     1
  8
0
100
AcDbBlockEnd
  0
ENDSEC
  0
SECTION
  2
ENTITIES
  0
SPLINE
  5
100
100
AcDbEntity
  8
bullhead-vector-2
 62
7
100
AcDbSpline
 70
8
 71
3
 72
8
 73
4
 74
0
 40
0
 40
0
 40
0
 40
0
 40
1
 40
1
 40
1
 40
1
 10
342.938400
 20
0.157500
 30
0.0
 10
330.564000
 20
-1.363126
 30
0.0
 10
329.450400
 20
8.659680
 30
0.0
 10
306.837600
 20
7.617192
 30
0.0
  0
SPLINE
  5
101
100
AcDbEntity
  8
bullhead-vector-2
 62
7
100
AcDbSpline
 70
8
 71
3
 72
8
 73
4
 74
0
 40
0
 40
0
 40
0
 40
0
 40
1
 40
1
 40
1
 40
1
 10
304.977600
 20
7.617192
 30
0.0
 10
282.372000
 20
8.659680
 30
0.0
 10
281.253600
 20
-1.363126
 30
0.0
 10
268.879200
 20
0.157500
 30
0.0
  0
SPLINE
  5
102
100
AcDbEntity
  8
bullhead-vector-2
 62
7
100
AcDbSpline
 70
8
 71
3
 72
8
 73
4
 74
0
 40
0
 40
0
 40
0
 40
0
 40
1
 40
1
 40
1
 40
1
 10
268.879200
 20
0.157500
 30
0.0
 10
256.166400
 20
1.721251
 30
0.0
 10
262.771200
 20
27.476160
 30
0.0
 10
266.236800
 20
24.716160
 30
0.0
  0
SPLINE
  5
103
100
AcDbEntity
  8
bullhead-vector-2
 62
7
100
AcDbSpline
 70
8
 71
3
 72
8
 73
4
 74
0
 40
0
 40
0
 40
0
 40
0
 40
1
 40
1
 40
1
 40
1
 10
266.236800
 20
24.716160
 30
0.0
 10
269.704800
 20
21.948744
 30
0.0
 10
272.460000
 20
20.101872
 30
0.0
 10
280.761600
 20
19.827192
 30
0.0
  0
SPLINE
  5
104
100
AcDbEntity
  8
bullhead-vector-2
 62
7
100
AcDbSpline
 70
8
 71
3
 72
8
 73
4
 74
0
 40
0
 40
0
 40
0
 40
0
 40
1
 40
1
 40
1
 40
1
 10
280.761600
 20
19.827192
 30
0.0
 10
289.454400
 20
19.545936
 30
0.0
 10
289.015200
 20
35.058720
 30
0.0
 10
292.809600
 20
35.058720
 30
0.0
  0
SPLINE
  5
105
100
AcDbEntity
  8
bullhead-vector-2
 62
7
100
AcDbSpline
 70
8
 71
3
 72
8
 73
4
 74
0
 40
0
 40
0
 40
0
 40
0
 40
1
 40
1
 40
1
 40
1
 10
292.809600
 20
35.058720
 30
0.0
 10
296.311200
 20
35.058720
 30
0.0
 10
296.940000
 20
31.179360
 30
0.0
 10
305.628000
 20
31.179360
 30
0.0
  0
SPLINE
  5
106
100
AcDbEntity
  8
bullhead-vector-2
 62
7
100
AcDbSpline
 70
8
 71
3
 72
8
 73
4
 74
0
 40
0
 40
0
 40
0
 40
0
 40
1
 40
1
 40
1
 40
1
 10
305.628000
 20
31.179360
 30
0.0
 10
314.313600
 20
31.179360
 30
0.0
 10
315.504000
 20
35.058720
 30
0.0
 10
319.005600
 20
35.058720
 30
0.0
  0
SPLINE
  5
107
100
AcDbEntity
  8
bullhead-vector-2
 62
7
100
AcDbSpline
 70
8
 71
3
 72
8
 73
4
 74
0
 40
0
 40
0
 40
0
 40
0
 40
1
 40
1
 40
1
 40
1
 10
319.005600
 20
35.058720
 30
0.0
 10
322.804800
 20
35.058720
 30
0.0
 10
320.656800
 20
20.893128
 30
0.0
 10
330.559200
 20
20.893128
 30
0.0
  0
SPLINE
  5
108
100
AcDbEntity
  8
bullhead-vector-2
 62
7
100
AcDbSpline
 70
8
 71
3
 72
8
 73
4
 74
0
 40
0
 40
0
 40
0
 40
0
 40
1
 40
1
 40
1
 40
1
 10
330.559200
 20
20.893128
 30
0.0
 10
340.466400
 20
20.893128
 30
0.0
 10
342.110400
 20
21.948744
 30
0.0
 10
345.580800
 20
24.716160
 30
0.0
  0
SPLINE
  5
109
100
AcDbEntity
  8
bullhead-vector-2
 62
7
100
AcDbSpline
 70
8
 71
3
 72
8
 73
4
 74
0
 40
0
 40
0
 40
0
 40
0
 40
1
 40
1
 40
1
 40
1
 10
345.580800
 20
24.716160
 30
0.0
 10
349.041600
 20
27.476160
 30
0.0
 10
355.651200
 20
1.721251
 30
0.0
 10
342.938400
 20
0.157500
 30
0.0
  0
LWPOLYLINE
  5
10a
100
AcDbEntity
  8
bullhead-vector-2
 62
7
100
AcDbPolyline
 90
2
 70
0
 10
306.837600
 20
7.617192
 30
0.0
 10
304.977600
 20
7.617192
 30
0.0
  0
SPLINE
  5
10b
100
AcDbEntity
  8
bullhead-vector-2
 62
7
100
AcDbSpline
 70
8
 71
3
 72
8
 73
4
 74
0
 40
0
 40
0
 40
0
 40
0
 40
1
 40
1
 40
1
 40
1
 10
284.203200
 20
51.010320
 30
0.0
 10
256.036800
 20
47.968080
 30
0.0
 10
254.044800
 20
73.454160
 30
0.0
 10
268.910400
 20
81.029040
 30
0.0
  0
SPLINE
  5
10c
100
AcDbEntity
  8
bullhead-vector-2
 62
7
100
AcDbSpline
 70
8
 71
3
 72
8
 73
4
 74
0
 40
0
 40
0
 40
0
 40
0
 40
1
 40
1
 40
1
 40
1
 10
268.910400
 20
81.029040
 30
0.0
 10
281.042400
 20
87.214800
 30
0.0
 10
287.035200
 20
66.023520
 30
0.0
 10
301.473600
 20
62.054160
 30
0.0
  0
SPLINE
  5
10d
100
AcDbEntity
  8
bullhead-vector-2
 62
7
100
AcDbSpline
 70
8
 71
3
 72
8
 73
4
 74
0
 40
0
 40
0
 40
0
 40
0
 40
1
 40
1
 40
1
 40
1
 10
301.473600
 20
62.054160
 30
0.0
 10
303.153600
 20
61.598400
 30
0.0
 10
304.622400
 20
61.375200
 30
0.0
 10
305.908800
 20
61.322880
 30
0.0
  0
SPLINE
  5
10e
100
AcDbEntity
  8
bullhead-vector-2
 62
7
100
AcDbSpline
 70
8
 71
3
 72
8
 73
4
 74
0
 40
0
 40
0
 40
0
 40
0
 40
1
 40
1
 40
1
 40
1
 10
305.908800
 20
61.322880
 30
0.0
 10
307.197600
 20
61.375200
 30
0.0
 10
308.666400
 20
61.598400
 30
0.0
 10
310.339200
 20
62.054160
 30
0.0
  0
SPLINE
  5
10f
100
AcDbEntity
  8
bullhead-vector-2
 62
7
100
AcDbSpline
 70
8
 71
3
 72
8
 73
4
 74
0
 40
0
 40
0
 40
0
 40
0
 40
1
 40
1
 40
1
 40
1
 10
310.339200
 20
62.054160
 30
0.0
 10
324.784800
 20
66.023520
 30
0.0
 10
330.780000
 20
87.214800
 30
0.0
 10
342.904800
 20
81.029040
 30
0.0
  0
SPLINE
  5
110
100
AcDbEntity
  8
bullhead-vector-2
 62
7
100
AcDbSpline
 70
8
 71
3
 72
8
 73
4
 74
0
 40
0
 40
0
 40
0
 40
0
 40
1
 40
1
 40
1
 40
1
 10
342.904800
 20
81.029040
 30
0.0
 10
357.772800
 20
73.454160
 30
0.0
 10
355.778400
 20
47.968080
 30
0.0
 10
327.616800
 20
51.010320
 30
0.0
  0
SPLINE
  5
111
100
AcDbEntity
  8
bullhead-vector-2
 62
7
100
AcDbSpline
 70
8
 71
3
 72
8
 73
4
 74
0
 40
0
 40
0
 40
0
 40
0
 40
1
 40
1
 40
1
 40
1
 10
327.616800
 20
51.010320
 30
0.0
 10
317.474400
 20
52.110960
 30
0.0
 10
320.256000
 20
32.857440
 30
0.0
 10
305.565600
 20
33.740640
 30
0.0
  0
SPLINE
  5
112
100
AcDbEntity
  8
bullhead-vector-2
 62
7
100
AcDbSpline
 70
8
 71
3
 72
8
 73
4
 74
0
 40
0
 40
0
 40
0
 40
0
 40
1
 40
1
 40
1
 40
1
 10
305.565600
 20
33.740640
 30
0.0
 10
290.877600
 20
32.857440
 30
0.0
 10
294.345600
 20
52.110960
 30
0.0
 10
284.203200
 20
51.010320
 30
0.0
  0
LWPOLYLINE
  5
113
100
AcDbEntity
  8
bullhead-vector-2
 62
7
100
AcDbPolyline
 90
2
 70
0
 10
342.938400
 20
0.157500
 30
0.0
 10
342.938400
 20
0.157500
 30
0.0
  0
SPLINE
  5
114
100
AcDbEntity
  8
bullhead-vector-2
 62
7
100
AcDbSpline
 70
8
 71
3
 72
8
 73
4
 74
0
 40
0
 40
0
 40
0
 40
0
 40
1
 40
1
 40
1
 40
1
 10
411.568800
 20
238.473840
 30
0.0
 10
407.772000
 20
231.919680
 30
0.0
 10
411.974400
 20
217.114800
 30
0.0
 10
406.341600
 20
208.377120
 30
0.0
  0
SPLINE
  5
115
100
AcDbEntity
  8
bullhead-vector-2
 62
7
100
AcDbSpline
 70
8
 71
3
 72
8
 73
4
 74
0
 40
0
 40
0
 40
0
 40
0
 40
1
 40
1
 40
1
 40
1
 10
406.341600
 20
208.377120
 30
0.0
 10
393.724800
 20
188.775120
 30
0.0
 10
376.310400
 20
200.667120
 30
0.0
 10
369.655200
 20
192.027120
 30
0.0
  0
SPLINE
  5
116
100
AcDbEntity
  8
bullhead-vector-2
 62
7
100
AcDbSpline
 70
8
 71
3
 72
8
 73
4
 74
0
 40
0
 40
0
 40
0
 40
0
 40
1
 40
1
 40
1
 40
1
 10
369.655200
 20
192.027120
 30
0.0
 10
367.656000
 20
189.434160
 30
0.0
 10
362.577600
 20
183.812880
 30
0.0
 10
357.624000
 20
183.391920
 30
0.0
  0
SPLINE
  5
117
100
AcDbEntity
  8
bullhead-vector-2
 62
7
100
AcDbSpline
 70
8
 71
3
 72
8
 73
4
 74
0
 40
0
 40
0
 40
0
 40
0
 40
1
 40
1
 40
1
 40
1
 10
357.624000
 20
183.391920
 30
0.0
 10
355.048800
 20
183.176160
 30
0.0
 10
353.400000
 20
184.907760
 30
0.0
 10
356.349600
 20
186.080640
 30
0.0
  0
SPLINE
  5
118
100
AcDbEntity
  8
bullhead-vector-2
 62
7
100
AcDbSpline
 70
8
 71
3
 72
8
 73
4
 74
0
 40
0
 40
0
 40
0
 40
0
 40
1
 40
1
 40
1
 40
1
 10
356.349600
 20
186.080640
 30
0.0
 10
369.616800
 20
191.374800
 30
0.0
 10
358.204800
 20
209.469360
 30
0.0
 10
376.826400
 20
227.182560
 30
0.0
  0
SPLINE
  5
119
100
AcDbEntity
  8
bullhead-vector-2
 62
7
100
AcDbSpline
 70
8
 71
3
 72
8
 73
4
 74
0
 40
0
 40
0
 40
0
 40
0
 40
1
 40
1
 40
1
 40
1
 10
376.826400
 20
227.182560
 30
0.0
 10
387.355200
 20
237.198720
 30
0.0
 10
396.273600
 20
234.508080
 30
0.0
 10
409.584000
 20
240.736800
 30
0.0
  0
SPLINE
  5
11a
100
AcDbEntity
  8
bullhead-vector-2
 62
7
100
AcDbSpline
 70
8
 71
3
 72
8
 73
4
 74
0
 40
0
 40
0
 40
0
 40
0
 40
1
 40
1
 40
1
 40
1
 10
409.584000
 20
240.736800
 30
0.0
 10
412.977600
 20
242.325600
 30
0.0
 10
412.732800
 20
240.492000
 30
0.0
 10
411.568800
 20
238.473840
 30
0.0
  0
LWPOLYLINE
  5
11b
100
AcDbEntity
  8
bullhead-vector-2
 62
7
100
AcDbPolyline
 90
2
 70
0
 10
284.203200
 20
51.010320
 30
0.0
 10
284.203200
 20
51.010320
 30
0.0
  0
SPLINE
  5
11c
100
AcDbEntity
  8
bullhead-vector-2
 62
7
100
AcDbSpline
 70
8
 71
3
 72
8
 73
4
 74
0
 40
0
 40
0
 40
0
 40
0
 40
1
 40
1
 40
1
 40
1
 10
253.195200
 20
183.391920
 30
0.0
 10
248.239200
 20
183.812880
 30
0.0
 10
243.160800
 20
189.434160
 30
0.0
 10
241.161600
 20
192.027120
 30
0.0
  0
SPLINE
  5
11d
100
AcDbEntity
  8
bullhead-vector-2
 62
7
100
AcDbSpline
 70
8
 71
3
 72
8
 73
4
 74
0
 40
0
 40
0
 40
0
 40
0
 40
1
 40
1
 40
1
 40
1
 10
241.161600
 20
192.027120
 30
0.0
 10
234.507120
 20
200.667120
 30
0.0
 10
217.091280
 20
188.775120
 30
0.0
 10
204.474480
 20
208.377120
 30
0.0
  0
SPLINE
  5
11e
100
AcDbEntity
  8
bullhead-vector-2
 62
7
100
AcDbSpline
 70
8
 71
3
 72
8
 73
4
 74
0
 40
0
 40
0
 40
0
 40
0
 40
1
 40
1
 40
1
 40
1
 10
204.474480
 20
208.377120
 30
0.0
 10
198.844800
 20
217.114800
 30
0.0
 10
203.044800
 20
231.919680
 30
0.0
 10
199.249680
 20
238.473840
 30
0.0
  0
SPLINE
  5
11f
100
AcDbEntity
  8
bullhead-vector-2
 62
7
100
AcDbSpline
 70
8
 71
3
 72
8
 73
4
 74
0
 40
0
 40
0
 40
0
 40
0
 40
1
 40
1
 40
1
 40
1
 10
199.249680
 20
238.473840
 30
0.0
 10
198.083520
 20
240.492000
 30
0.0
 10
197.841600
 20
242.325600
 30
0.0
 10
201.233520
 20
240.736800
 30
0.0
  0
SPLINE
  5
120
100
AcDbEntity
  8
bullhead-vector-2
 62
7
100
AcDbSpline
 70
8
 71
3
 72
8
 73
4
 74
0
 40
0
 40
0
 40
0
 40
0
 40
1
 40
1
 40
1
 40
1
 10
201.233520
 20
240.736800
 30
0.0
 10
214.543200
 20
234.508080
 30
0.0
 10
223.461600
 20
237.198720
 30
0.0
 10
233.995200
 20
227.182560
 30
0.0
  0
SPLINE
  5
121
100
AcDbEntity
  8
bullhead-vector-2
 62
7
100
AcDbSpline
 70
8
 71
3
 72
8
 73
4
 74
0
 40
0
 40
0
 40
0
 40
0
 40
1
 40
1
 40
1
 40
1
 10
233.995200
 20
227.182560
 30
0.0
 10
252.612000
 20
209.469360
 30
0.0
 10
241.200000
 20
191.374800
 30
0.0
 10
254.469600
 20
186.080640
 30
0.0
  0
SPLINE
  5
122
100
AcDbEntity
  8
bullhead-vector-2
 62
7
100
AcDbSpline
 70
8
 71
3
 72
8
 73
4
 74
0
 40
0
 40
0
 40
0
 40
0
 40
1
 40
1
 40
1
 40
1
 10
254.469600
 20
186.080640
 30
0.0
 10
257.416800
 20
184.907760
 30
0.0
 10
255.770400
 20
183.176160
 30
0.0
 10
253.195200
 20
183.391920
 30
0.0
  0
LWPOLYLINE
  5
123
100
AcDbEntity
  8
bullhead-vector-2
 62
7
100
AcDbPolyline
 90
2
 70
0
 10
411.568800
 20
238.473840
 30
0.0
 10
411.568800
 20
238.473840
 30
0.0
  0
SPLINE
  5
124
100
AcDbEntity
  8
bullhead-vector-2
 62
7
100
AcDbSpline
 70
8
 71
3
 72
8
 73
4
 74
0
 40
0
 40
0
 40
0
 40
0
 40
1
 40
1
 40
1
 40
1
 10
460.171200
 20
498.660000
 30
0.0
 10
457.576800
 20
498.566400
 30
0.0
 10
457.128000
 20
498.146400
 30
0.0
 10
456.849600
 20
495.568800
 30
0.0
  0
SPLINE
  5
125
100
AcDbEntity
  8
bullhead-vector-2
 62
7
100
AcDbSpline
 70
8
 71
3
 72
8
 73
4
 74
0
 40
0
 40
0
 40
0
 40
0
 40
1
 40
1
 40
1
 40
1
 10
456.849600
 20
495.568800
 30
0.0
 10
614.289600
 20
360.069600
 30
0.0
 10
486.823200
 20
333.031200
 30
0.0
 10
426.566400
 20
333.031200
 30
0.0
  0
SPLINE
  5
126
100
AcDbEntity
  8
bullhead-vector-2
 62
7
100
AcDbSpline
 70
8
 71
3
 72
8
 73
4
 74
0
 40
0
 40
0
 40
0
 40
0
 40
1
 40
1
 40
1
 40
1
 10
426.566400
 20
333.031200
 30
0.0
 10
426.528000
 20
332.508000
 30
0.0
 10
426.525600
 20
331.999200
 30
0.0
 10
426.501600
 20
331.485600
 30
0.0
  0
SPLINE
  5
127
100
AcDbEntity
  8
bullhead-vector-2
 62
7
100
AcDbSpline
 70
8
 71
3
 72
8
 73
4
 74
0
 40
0
 40
0
 40
0
 40
0
 40
1
 40
1
 40
1
 40
1
 10
426.501600
 20
331.485600
 30
0.0
 10
409.975200
 20
343.353600
 30
0.0
 10
381.708000
 20
338.990400
 30
0.0
 10
359.896800
 20
340.843200
 30
0.0
  0
SPLINE
  5
128
100
AcDbEntity
  8
bullhead-vector-2
 62
7
100
AcDbSpline
 70
8
 71
3
 72
8
 73
4
 74
0
 40
0
 40
0
 40
0
 40
0
 40
1
 40
1
 40
1
 40
1
 10
359.896800
 20
340.843200
 30
0.0
 10
327.021600
 20
343.624800
 30
0.0
 10
321.823200
 20
368.596800
 30
0.0
 10
306.290400
 20
368.863200
 30
0.0
  0
LWPOLYLINE
  5
129
100
AcDbEntity
  8
bullhead-vector-2
 62
7
100
AcDbPolyline
 90
2
 70
0
 10
253.195200
 20
183.391920
 30
0.0
 10
253.195200
 20
183.391920
 30
0.0
  0
SPLINE
  5
12a
100
AcDbEntity
  8
bullhead-vector-2
 62
7
100
AcDbSpline
 70
8
 71
3
 72
8
 73
4
 74
0
 40
0
 40
0
 40
0
 40
0
 40
1
 40
1
 40
1
 40
1
 10
306.290400
 20
368.872800
 30
0.0
 10
306.163200
 20
368.880000
 30
0.0
 10
306.036000
 20
368.865600
 30
0.0
 10
305.908800
 20
368.868000
 30
0.0
  0
SPLINE
  5
12b
100
AcDbEntity
  8
bullhead-vector-2
 62
7
100
AcDbSpline
 70
8
 71
3
 72
8
 73
4
 74
0
 40
0
 40
0
 40
0
 40
0
 40
1
 40
1
 40
1
 40
1
 10
305.908800
 20
368.868000
 30
0.0
 10
305.781600
 20
368.865600
 30
0.0
 10
305.659200
 20
368.880000
 30
0.0
 10
305.527200
 20
368.872800
 30
0.0
  0
LWPOLYLINE
  5
12c
100
AcDbEntity
  8
bullhead-vector-2
 62
7
100
AcDbPolyline
 90
2
 70
0
 10
306.290400
 20
368.863200
 30
0.0
 10
306.290400
 20
368.872800
 30
0.0
  0
SPLINE
  5
12d
100
AcDbEntity
  8
bullhead-vector-2
 62
7
100
AcDbSpline
 70
8
 71
3
 72
8
 73
4
 74
0
 40
0
 40
0
 40
0
 40
0
 40
1
 40
1
 40
1
 40
1
 10
305.527200
 20
368.863200
 30
0.0
 10
289.994400
 20
368.596800
 30
0.0
 10
284.798400
 20
343.624800
 30
0.0
 10
251.920800
 20
340.843200
 30
0.0
  0
SPLINE
  5
12e
100
AcDbEntity
  8
bullhead-vector-2
 62
7
100
AcDbSpline
 70
8
 71
3
 72
8
 73
4
 74
0
 40
0
 40
0
 40
0
 40
0
 40
1
 40
1
 40
1
 40
1
 10
251.920800
 20
340.843200
 30
0.0
 10
229.320960
 20
338.923200
 30
0.0
 10
199.795200
 20
343.675200
 30
0.0
 10
183.573840
 20
330.132000
 30
0.0
  0
SPLINE
  5
12f
100
AcDbEntity
  8
bullhead-vector-2
 62
7
100
AcDbSpline
 70
8
 71
3
 72
8
 73
4
 74
0
 40
0
 40
0
 40
0
 40
0
 40
1
 40
1
 40
1
 40
1
 10
183.573840
 20
330.132000
 30
0.0
 10
183.556800
 20
331.089600
 30
0.0
 10
183.522240
 20
332.052000
 30
0.0
 10
183.452880
 20
333.031200
 30
0.0
  0
SPLINE
  5
130
100
AcDbEntity
  8
bullhead-vector-2
 62
7
100
AcDbSpline
 70
8
 71
3
 72
8
 73
4
 74
0
 40
0
 40
0
 40
0
 40
0
 40
1
 40
1
 40
1
 40
1
 10
183.452880
 20
333.031200
 30
0.0
 10
123.195840
 20
333.031200
 30
0.0
 10
-4.269384
 20
360.069600
 30
0.0
 10
153.168720
 20
495.568800
 30
0.0
  0
SPLINE
  5
131
100
AcDbEntity
  8
bullhead-vector-2
 62
7
100
AcDbSpline
 70
8
 71
3
 72
8
 73
4
 74
0
 40
0
 40
0
 40
0
 40
0
 40
1
 40
1
 40
1
 40
1
 10
153.168720
 20
495.568800
 30
0.0
 10
152.890320
 20
498.146400
 30
0.0
 10
152.441280
 20
498.566400
 30
0.0
 10
149.849040
 20
498.660000
 30
0.0
  0
SPLINE
  5
132
100
AcDbEntity
  8
bullhead-vector-2
 62
7
100
AcDbSpline
 70
8
 71
3
 72
8
 73
4
 74
0
 40
0
 40
0
 40
0
 40
0
 40
1
 40
1
 40
1
 40
1
 10
149.849040
 20
498.660000
 30
0.0
 10
-102.070320
 20
375.055200
 30
0.0
 10
8.553744
 20
239.092560
 30
0.0
 10
155.023200
 20
239.092560
 30
0.0
  0
SPLINE
  5
133
100
AcDbEntity
  8
bullhead-vector-2
 62
7
100
AcDbSpline
 70
8
 71
3
 72
8
 73
4
 74
0
 40
0
 40
0
 40
0
 40
0
 40
1
 40
1
 40
1
 40
1
 10
155.023200
 20
239.092560
 30
0.0
 10
154.518720
 20
259.766400
 30
0.0
 10
163.706160
 20
275.505600
 30
0.0
 10
171.793200
 20
291.132000
 30
0.0
  0
SPLINE
  5
134
100
AcDbEntity
  8
bullhead-vector-2
 62
7
100
AcDbSpline
 70
8
 71
3
 72
8
 73
4
 74
0
 40
0
 40
0
 40
0
 40
0
 40
1
 40
1
 40
1
 40
1
 10
171.793200
 20
291.132000
 30
0.0
 10
173.718720
 20
241.975200
 30
0.0
 10
180.224160
 20
258.112800
 30
0.0
 10
168.103200
 20
221.200320
 30
0.0
  0
SPLINE
  5
135
100
AcDbEntity
  8
bullhead-vector-2
 62
7
100
AcDbSpline
 70
8
 71
3
 72
8
 73
4
 74
0
 40
0
 40
0
 40
0
 40
0
 40
1
 40
1
 40
1
 40
1
 10
168.103200
 20
221.200320
 30
0.0
 10
160.388400
 20
197.704800
 30
0.0
 10
147.149040
 20
175.318080
 30
0.0
 10
186.225840
 20
140.206800
 30
0.0
  0
SPLINE
  5
136
100
AcDbEntity
  8
bullhead-vector-2
 62
7
100
AcDbSpline
 70
8
 71
3
 72
8
 73
4
 74
0
 40
0
 40
0
 40
0
 40
0
 40
1
 40
1
 40
1
 40
1
 10
186.225840
 20
140.206800
 30
0.0
 10
225.302880
 20
105.095520
 30
0.0
 10
225.558720
 20
110.093520
 30
0.0
 10
234.930000
 20
96.036480
 30
0.0
  0
SPLINE
  5
137
100
AcDbEntity
  8
bullhead-vector-2
 62
7
100
AcDbSpline
 70
8
 71
3
 72
8
 73
4
 74
0
 40
0
 40
0
 40
0
 40
0
 40
1
 40
1
 40
1
 40
1
 10
234.930000
 20
96.036480
 30
0.0
 10
240.595200
 20
87.540960
 30
0.0
 10
208.594800
 20
75.647760
 30
0.0
 10
243.424800
 20
45.345840
 30
0.0
  0
SPLINE
  5
138
100
AcDbEntity
  8
bullhead-vector-2
 62
7
100
AcDbSpline
 70
8
 71
3
 72
8
 73
4
 74
0
 40
0
 40
0
 40
0
 40
0
 40
1
 40
1
 40
1
 40
1
 10
243.424800
 20
45.345840
 30
0.0
 10
278.256000
 20
15.052512
 30
0.0
 10
282.220800
 20
35.157120
 30
0.0
 10
283.070400
 20
40.820640
 30
0.0
  0
SPLINE
  5
139
100
AcDbEntity
  8
bullhead-vector-2
 62
7
100
AcDbSpline
 70
8
 71
3
 72
8
 73
4
 74
0
 40
0
 40
0
 40
0
 40
0
 40
1
 40
1
 40
1
 40
1
 10
283.070400
 20
40.820640
 30
0.0
 10
283.920000
 20
46.483200
 30
0.0
 10
273.158400
 20
35.011920
 30
0.0
 10
260.416800
 20
46.904160
 30
0.0
  0
SPLINE
  5
13a
100
AcDbEntity
  8
bullhead-vector-2
 62
7
100
AcDbSpline
 70
8
 71
3
 72
8
 73
4
 74
0
 40
0
 40
0
 40
0
 40
0
 40
1
 40
1
 40
1
 40
1
 10
260.416800
 20
46.904160
 30
0.0
 10
247.675200
 20
58.802880
 30
0.0
 10
238.541280
 20
82.868400
 30
0.0
 10
267.424800
 20
92.776800
 30
0.0
  0
SPLINE
  5
13b
100
AcDbEntity
  8
bullhead-vector-2
 62
7
100
AcDbSpline
 70
8
 71
3
 72
8
 73
4
 74
0
 40
0
 40
0
 40
0
 40
0
 40
1
 40
1
 40
1
 40
1
 10
267.424800
 20
92.776800
 30
0.0
 10
295.593600
 20
102.447120
 30
0.0
 10
281.656800
 20
65.131920
 30
0.0
 10
304.456800
 20
63.473520
 30
0.0
  0
LWPOLYLINE
  5
13c
100
AcDbEntity
  8
bullhead-vector-2
 62
7
100
AcDbPolyline
 90
2
 70
0
 10
305.527200
 20
368.872800
 30
0.0
 10
305.527200
 20
368.863200
 30
0.0
  0
SPLINE
  5
13d
100
AcDbEntity
  8
bullhead-vector-2
 62
7
100
AcDbSpline
 70
8
 71
3
 72
8
 73
4
 74
0
 40
0
 40
0
 40
0
 40
0
 40
1
 40
1
 40
1
 40
1
 10
304.456800
 20
63.321600
 30
0.0
 10
304.785600
 20
63.358080
 30
0.0
 10
305.121600
 20
63.386160
 30
0.0
 10
305.476800
 20
63.386160
 30
0.0
  0
SPLINE
  5
13e
100
AcDbEntity
  8
bullhead-vector-2
 62
7
100
AcDbSpline
 70
8
 71
3
 72
8
 73
4
 74
0
 40
0
 40
0
 40
0
 40
0
 40
1
 40
1
 40
1
 40
1
 10
305.476800
 20
63.386160
 30
0.0
 10
305.611200
 20
63.386160
 30
0.0
 10
305.728800
 20
63.402240
 30
0.0
 10
305.856000
 20
63.407760
 30
0.0
  0
SPLINE
  5
13f
100
AcDbEntity
  8
bullhead-vector-2
 62
7
100
AcDbSpline
 70
8
 71
3
 72
8
 73
4
 74
0
 40
0
 40
0
 40
0
 40
0
 40
1
 40
1
 40
1
 40
1
 10
305.856000
 20
63.407760
 30
0.0
 10
305.990400
 20
63.402240
 30
0.0
 10
306.105600
 20
63.386160
 30
0.0
 10
306.240000
 20
63.386160
 30
0.0
  0
SPLINE
  5
140
100
AcDbEntity
  8
bullhead-vector-2
 62
7
100
AcDbSpline
 70
8
 71
3
 72
8
 73
4
 74
0
 40
0
 40
0
 40
0
 40
0
 40
1
 40
1
 40
1
 40
1
 10
306.240000
 20
63.386160
 30
0.0
 10
306.595200
 20
63.386160
 30
0.0
 10
306.931200
 20
63.358080
 30
0.0
 10
307.260000
 20
63.321600
 30
0.0
  0
LWPOLYLINE
  5
141
100
AcDbEntity
  8
bullhead-vector-2
 62
7
100
AcDbPolyline
 90
2
 70
0
 10
304.456800
 20
63.473520
 30
0.0
 10
304.456800
 20
63.321600
 30
0.0
  0
SPLINE
  5
142
100
AcDbEntity
  8
bullhead-vector-2
 62
7
100
AcDbSpline
 70
8
 71
3
 72
8
 73
4
 74
0
 40
0
 40
0
 40
0
 40
0
 40
1
 40
1
 40
1
 40
1
 10
307.260000
 20
63.473520
 30
0.0
 10
330.055200
 20
65.131920
 30
0.0
 10
316.224000
 20
102.447120
 30
0.0
 10
344.395200
 20
92.776800
 30
0.0
  0
SPLINE
  5
143
100
AcDbEntity
  8
bullhead-vector-2
 62
7
100
AcDbSpline
 70
8
 71
3
 72
8
 73
4
 74
0
 40
0
 40
0
 40
0
 40
0
 40
1
 40
1
 40
1
 40
1
 10
344.395200
 20
92.776800
 30
0.0
 10
373.276800
 20
82.868400
 30
0.0
 10
364.142400
 20
58.802880
 30
0.0
 10
351.400800
 20
46.904160
 30
0.0
  0
SPLINE
  5
144
100
AcDbEntity
  8
bullhead-vector-2
 62
7
100
AcDbSpline
 70
8
 71
3
 72
8
 73
4
 74
0
 40
0
 40
0
 40
0
 40
0
 40
1
 40
1
 40
1
 40
1
 10
351.400800
 20
46.904160
 30
0.0
 10
338.659200
 20
35.011920
 30
0.0
 10
327.900000
 20
46.483200
 30
0.0
 10
328.749600
 20
40.820640
 30
0.0
  0
SPLINE
  5
145
100
AcDbEntity
  8
bullhead-vector-2
 62
7
100
AcDbSpline
 70
8
 71
3
 72
8
 73
4
 74
0
 40
0
 40
0
 40
0
 40
0
 40
1
 40
1
 40
1
 40
1
 10
328.749600
 20
40.820640
 30
0.0
 10
329.596800
 20
35.157120
 30
0.0
 10
333.561600
 20
15.052512
 30
0.0
 10
368.390400
 20
45.345840
 30
0.0
  0
SPLINE
  5
146
100
AcDbEntity
  8
bullhead-vector-2
 62
7
100
AcDbSpline
 70
8
 71
3
 72
8
 73
4
 74
0
 40
0
 40
0
 40
0
 40
0
 40
1
 40
1
 40
1
 40
1
 10
368.390400
 20
45.345840
 30
0.0
 10
403.226400
 20
75.647760
 30
0.0
 10
371.222400
 20
87.540960
 30
0.0
 10
376.888800
 20
96.036480
 30
0.0
  0
SPLINE
  5
147
100
AcDbEntity
  8
bullhead-vector-2
 62
7
100
AcDbSpline
 70
8
 71
3
 72
8
 73
4
 74
0
 40
0
 40
0
 40
0
 40
0
 40
1
 40
1
 40
1
 40
1
 10
376.888800
 20
96.036480
 30
0.0
 10
386.263200
 20
110.093520
 30
0.0
 10
386.515200
 20
105.095520
 30
0.0
 10
425.592000
 20
140.206800
 30
0.0
  0
SPLINE
  5
148
100
AcDbEntity
  8
bullhead-vector-2
 62
7
100
AcDbSpline
 70
8
 71
3
 72
8
 73
4
 74
0
 40
0
 40
0
 40
0
 40
0
 40
1
 40
1
 40
1
 40
1
 10
425.592000
 20
140.206800
 30
0.0
 10
464.668800
 20
175.318080
 30
0.0
 10
451.428000
 20
197.704800
 30
0.0
 10
443.716800
 20
221.200320
 30
0.0
  0
SPLINE
  5
149
100
AcDbEntity
  8
bullhead-vector-2
 62
7
100
AcDbSpline
 70
8
 71
3
 72
8
 73
4
 74
0
 40
0
 40
0
 40
0
 40
0
 40
1
 40
1
 40
1
 40
1
 10
443.716800
 20
221.200320
 30
0.0
 10
431.865600
 20
257.292000
 30
0.0
 10
437.817600
 20
242.666400
 30
0.0
 10
439.888800
 20
287.935200
 30
0.0
  0
SPLINE
  5
14a
100
AcDbEntity
  8
bullhead-vector-2
 62
7
100
AcDbSpline
 70
8
 71
3
 72
8
 73
4
 74
0
 40
0
 40
0
 40
0
 40
0
 40
1
 40
1
 40
1
 40
1
 10
439.888800
 20
287.935200
 30
0.0
 10
447.518400
 20
273.338400
 30
0.0
 10
455.464800
 20
258.360000
 30
0.0
 10
454.996800
 20
239.092560
 30
0.0
  0
SPLINE
  5
14b
100
AcDbEntity
  8
bullhead-vector-2
 62
7
100
AcDbSpline
 70
8
 71
3
 72
8
 73
4
 74
0
 40
0
 40
0
 40
0
 40
0
 40
1
 40
1
 40
1
 40
1
 10
454.996800
 20
239.092560
 30
0.0
 10
601.466400
 20
239.092560
 30
0.0
 10
712.089600
 20
375.055200
 30
0.0
 10
460.171200
 20
498.660000
 30
0.0
  0
SPLINE
  5
14c
100
AcDbEntity
  8
bullhead-vector-2
 62
7
100
AcDbSpline
 70
8
 71
3
 72
8
 73
4
 74
0
 40
0
 40
0
 40
0
 40
0
 40
1
 40
1
 40
1
 40
1
 10
347.570400
 20
183.629040
 30
0.0
 10
362.251200
 20
177.564480
 30
0.0
 10
317.695200
 20
113.849040
 30
0.0
 10
352.670400
 20
99.360000
 30
0.0
  0
SPLINE
  5
14d
100
AcDbEntity
  8
bullhead-vector-2
 62
7
100
AcDbSpline
 70
8
 71
3
 72
8
 73
4
 74
0
 40
0
 40
0
 40
0
 40
0
 40
1
 40
1
 40
1
 40
1
 10
352.670400
 20
99.360000
 30
0.0
 10
321.777600
 20
111.577440
 30
0.0
 10
365.296800
 20
176.304480
 30
0.0
 10
347.570400
 20
183.629040
 30
0.0
  0
LWPOLYLINE
  5
14e
100
AcDbEntity
  8
bullhead-vector-2
 62
7
100
AcDbPolyline
 90
2
 70
0
 10
307.260000
 20
63.321600
 30
0.0
 10
307.260000
 20
63.473520
 30
0.0
  0
SPLINE
  5
14f
100
AcDbEntity
  8
bullhead-vector-2
 62
7
100
AcDbSpline
 70
8
 71
3
 72
8
 73
4
 74
0
 40
0
 40
0
 40
0
 40
0
 40
1
 40
1
 40
1
 40
1
 10
258.163200
 20
99.360000
 30
0.0
 10
293.143200
 20
113.849040
 30
0.0
 10
248.584800
 20
177.564480
 30
0.0
 10
263.263200
 20
183.629040
 30
0.0
  0
SPLINE
  5
150
100
AcDbEntity
  8
bullhead-vector-2
 62
7
100
AcDbSpline
 70
8
 71
3
 72
8
 73
4
 74
0
 40
0
 40
0
 40
0
 40
0
 40
1
 40
1
 40
1
 40
1
 10
263.263200
 20
183.629040
 30
0.0
 10
245.539200
 20
176.304480
 30
0.0
 10
289.058400
 20
111.577440
 30
0.0
 10
258.163200
 20
99.360000
 30
0.0
  0
LWPOLYLINE
  5
151
100
AcDbEntity
  8
bullhead-vector-2
 62
7
100
AcDbPolyline
 90
2
 70
0
 10
347.570400
 20
183.629040
 30
0.0
 10
347.570400
 20
183.629040
 30
0.0
  0
SPLINE
  5
152
100
AcDbEntity
  8
bullhead-vector-2
 62
7
100
AcDbSpline
 70
8
 71
3
 72
8
 73
4
 74
0
 40
0
 40
0
 40
0
 40
0
 40
1
 40
1
 40
1
 40
1
 10
259.768800
 20
198.686160
 30
0.0
 10
276.403200
 20
232.695120
 30
0.0
 10
200.835120
 20
250.980000
 30
0.0
 10
207.826800
 20
265.240800
 30
0.0
  0
SPLINE
  5
153
100
AcDbEntity
  8
bullhead-vector-2
 62
7
100
AcDbSpline
 70
8
 71
3
 72
8
 73
4
 74
0
 40
0
 40
0
 40
0
 40
0
 40
1
 40
1
 40
1
 40
1
 10
207.826800
 20
265.240800
 30
0.0
 10
199.383840
 20
248.018400
 30
0.0
 10
274.843200
 20
228.289680
 30
0.0
 10
259.768800
 20
198.686160
 30
0.0
  0
LWPOLYLINE
  5
154
100
AcDbEntity
  8
bullhead-vector-2
 62
7
100
AcDbPolyline
 90
2
 70
0
 10
258.163200
 20
99.360000
 30
0.0
 10
258.163200
 20
99.360000
 30
0.0
  0
SPLINE
  5
155
100
AcDbEntity
  8
bullhead-vector-2
 62
7
100
AcDbSpline
 70
8
 71
3
 72
8
 73
4
 74
0
 40
0
 40
0
 40
0
 40
0
 40
1
 40
1
 40
1
 40
1
 10
402.571200
 20
265.240800
 30
0.0
 10
409.562400
 20
250.980000
 30
0.0
 10
333.996000
 20
232.695120
 30
0.0
 10
350.630400
 20
198.686160
 30
0.0
  0
SPLINE
  5
156
100
AcDbEntity
  8
bullhead-vector-2
 62
7
100
AcDbSpline
 70
8
 71
3
 72
8
 73
4
 74
0
 40
0
 40
0
 40
0
 40
0
 40
1
 40
1
 40
1
 40
1
 10
350.630400
 20
198.686160
 30
0.0
 10
335.553600
 20
228.289680
 30
0.0
 10
411.014400
 20
248.018400
 30
0.0
 10
402.571200
 20
265.240800
 30
0.0
  0
LWPOLYLINE
  5
157
100
AcDbEntity
  8
bullhead-vector-2
 62
7
100
AcDbPolyline
 90
2
 70
0
 10
259.768800
 20
198.686160
 30
0.0
 10
259.768800
 20
198.686160
 30
0.0
  0
SPLINE
  5
158
100
AcDbEntity
  8
bullhead-vector-2
 62
7
100
AcDbSpline
 70
8
 71
3
 72
8
 73
4
 74
0
 40
0
 40
0
 40
0
 40
0
 40
1
 40
1
 40
1
 40
1
 10
356.618400
 20
106.718400
 30
0.0
 10
356.618400
 20
126.885120
 30
0.0
 10
425.265600
 20
157.830960
 30
0.0
 10
425.265600
 20
189.995520
 30
0.0
  0
SPLINE
  5
159
100
AcDbEntity
  8
bullhead-vector-2
 62
7
100
AcDbSpline
 70
8
 71
3
 72
8
 73
4
 74
0
 40
0
 40
0
 40
0
 40
0
 40
1
 40
1
 40
1
 40
1
 10
425.265600
 20
189.995520
 30
0.0
 10
425.265600
 20
162.938400
 30
0.0
 10
356.618400
 20
131.070000
 30
0.0
 10
356.618400
 20
106.718400
 30
0.0
  0
LWPOLYLINE
  5
15a
100
AcDbEntity
  8
bullhead-vector-2
 62
7
100
AcDbPolyline
 90
2
 70
0
 10
402.571200
 20
265.240800
 30
0.0
 10
402.571200
 20
265.240800
 30
0.0
  0
SPLINE
  5
15b
100
AcDbEntity
  8
bullhead-vector-2
 62
7
100
AcDbSpline
 70
8
 71
3
 72
8
 73
4
 74
0
 40
0
 40
0
 40
0
 40
0
 40
1
 40
1
 40
1
 40
1
 10
185.169360
 20
189.995520
 30
0.0
 10
185.169360
 20
157.830960
 30
0.0
 10
253.816800
 20
126.885120
 30
0.0
 10
253.816800
 20
106.718400
 30
0.0
  0
SPLINE
  5
15c
100
AcDbEntity
  8
bullhead-vector-2
 62
7
100
AcDbSpline
 70
8
 71
3
 72
8
 73
4
 74
0
 40
0
 40
0
 40
0
 40
0
 40
1
 40
1
 40
1
 40
1
 10
253.816800
 20
106.718400
 30
0.0
 10
253.816800
 20
131.070000
 30
0.0
 10
185.169360
 20
162.938400
 30
0.0
 10
185.169360
 20
189.995520
 30
0.0
  0
LWPOLYLINE
  5
15d
100
AcDbEntity
  8
bullhead-vector-2
 62
7
100
AcDbPolyline
 90
2
 70
0
 10
356.618400
 20
106.718400
 30
0.0
 10
356.618400
 20
106.718400
 30
0.0
  0
SPLINE
  5
15e
100
AcDbEntity
  8
bullhead-vector-2
 62
7
100
AcDbSpline
 70
8
 71
3
 72
8
 73
4
 74
0
 40
0
 40
0
 40
0
 40
0
 40
1
 40
1
 40
1
 40
1
 10
425.268000
 20
289.773600
 30
0.0
 10
420.456000
 20
276.948000
 30
0.0
 10
357.523200
 20
286.166400
 30
0.0
 10
341.889600
 20
281.757600
 30
0.0
  0
SPLINE
  5
15f
100
AcDbEntity
  8
bullhead-vector-2
 62
7
100
AcDbSpline
 70
8
 71
3
 72
8
 73
4
 74
0
 40
0
 40
0
 40
0
 40
0
 40
1
 40
1
 40
1
 40
1
 10
341.889600
 20
281.757600
 30
0.0
 10
326.253600
 20
277.348800
 30
0.0
 10
305.008800
 20
243.273600
 30
0.0
 10
305.008800
 20
243.273600
 30
0.0
  0
SPLINE
  5
160
100
AcDbEntity
  8
bullhead-vector-2
 62
7
100
AcDbSpline
 70
8
 71
3
 72
8
 73
4
 74
0
 40
0
 40
0
 40
0
 40
0
 40
1
 40
1
 40
1
 40
1
 10
305.008800
 20
243.273600
 30
0.0
 10
305.008800
 20
243.273600
 30
0.0
 10
284.181600
 20
277.348800
 30
0.0
 10
268.548000
 20
281.757600
 30
0.0
  0
SPLINE
  5
161
100
AcDbEntity
  8
bullhead-vector-2
 62
7
100
AcDbSpline
 70
8
 71
3
 72
8
 73
4
 74
0
 40
0
 40
0
 40
0
 40
0
 40
1
 40
1
 40
1
 40
1
 10
268.548000
 20
281.757600
 30
0.0
 10
252.914400
 20
286.166400
 30
0.0
 10
189.978720
 20
276.948000
 30
0.0
 10
185.169360
 20
289.773600
 30
0.0
  0
SPLINE
  5
162
100
AcDbEntity
  8
bullhead-vector-2
 62
7
100
AcDbSpline
 70
8
 71
3
 72
8
 73
4
 74
0
 40
0
 40
0
 40
0
 40
0
 40
1
 40
1
 40
1
 40
1
 10
185.169360
 20
289.773600
 30
0.0
 10
189.978720
 20
276.948000
 30
0.0
 10
252.914400
 20
283.596000
 30
0.0
 10
268.548000
 20
279.187200
 30
0.0
  0
SPLINE
  5
163
100
AcDbEntity
  8
bullhead-vector-2
 62
7
100
AcDbSpline
 70
8
 71
3
 72
8
 73
4
 74
0
 40
0
 40
0
 40
0
 40
0
 40
1
 40
1
 40
1
 40
1
 10
268.548000
 20
279.187200
 30
0.0
 10
284.181600
 20
274.778400
 30
0.0
 10
305.008800
 20
240.705600
 30
0.0
 10
305.008800
 20
240.705600
 30
0.0
  0
SPLINE
  5
164
100
AcDbEntity
  8
bullhead-vector-2
 62
7
100
AcDbSpline
 70
8
 71
3
 72
8
 73
4
 74
0
 40
0
 40
0
 40
0
 40
0
 40
1
 40
1
 40
1
 40
1
 10
305.008800
 20
240.705600
 30
0.0
 10
305.008800
 20
240.705600
 30
0.0
 10
326.253600
 20
274.778400
 30
0.0
 10
341.889600
 20
279.187200
 30
0.0
  0
SPLINE
  5
165
100
AcDbEntity
  8
bullhead-vector-2
 62
7
100
AcDbSpline
 70
8
 71
3
 72
8
 73
4
 74
0
 40
0
 40
0
 40
0
 40
0
 40
1
 40
1
 40
1
 40
1
 10
341.889600
 20
279.187200
 30
0.0
 10
357.523200
 20
283.596000
 30
0.0
 10
420.456000
 20
276.948000
 30
0.0
 10
425.268000
 20
289.773600
 30
0.0
  0
LWPOLYLINE
  5
166
100
AcDbEntity
  8
bullhead-vector-2
 62
7
100
AcDbPolyline
 90
2
 70
0
 10
185.169360
 20
189.995520
 30
0.0
 10
185.169360
 20
189.995520
 30
0.0
  0
SPLINE
  5
167
100
AcDbEntity
  8
bullhead-vector-2
 62
7
100
AcDbSpline
 70
8
 71
3
 72
8
 73
4
 74
0
 40
0
 40
0
 40
0
 40
0
 40
1
 40
1
 40
1
 40
1
 10
592.303200
 20
358.819200
 30
0.0
 10
592.399200
 20
350.829600
 30
0.0
 10
591.328800
 20
342.744000
 30
0.0
 10
588.837600
 20
334.802400
 30
0.0
  0
SPLINE
  5
168
100
AcDbEntity
  8
bullhead-vector-2
 62
7
100
AcDbSpline
 70
8
 71
3
 72
8
 73
4
 74
0
 40
0
 40
0
 40
0
 40
0
 40
1
 40
1
 40
1
 40
1
 10
588.837600
 20
334.802400
 30
0.0
 10
583.008000
 20
316.209600
 30
0.0
 10
570.290400
 20
300.672000
 30
0.0
 10
551.042400
 20
288.628800
 30
0.0
  0
SPLINE
  5
169
100
AcDbEntity
  8
bullhead-vector-2
 62
7
100
AcDbSpline
 70
8
 71
3
 72
8
 73
4
 74
0
 40
0
 40
0
 40
0
 40
0
 40
1
 40
1
 40
1
 40
1
 10
551.042400
 20
288.628800
 30
0.0
 10
529.646400
 20
275.239200
 30
0.0
 10
500.544000
 20
266.539200
 30
0.0
 10
464.505600
 20
262.749600
 30
0.0
  0
LWPOLYLINE
  5
16a
100
AcDbEntity
  8
bullhead-vector-2
 62
7
100
AcDbPolyline
 90
2
 70
0
 10
425.268000
 20
289.773600
 30
0.0
 10
425.268000
 20
289.773600
 30
0.0
  0
SPLINE
  5
16b
100
AcDbEntity
  8
bullhead-vector-2
 62
7
100
AcDbSpline
 70
8
 71
3
 72
8
 73
4
 74
0
 40
0
 40
0
 40
0
 40
0
 40
1
 40
1
 40
1
 40
1
 10
466.120800
 20
256.910400
 30
0.0
 10
558.583200
 20
266.318400
 30
0.0
 10
583.320000
 20
308.239200
 30
0.0
 10
589.828800
 20
332.508000
 30
0.0
  0
SPLINE
  5
16c
100
AcDbEntity
  8
bullhead-vector-2
 62
7
100
AcDbSpline
 70
8
 71
3
 72
8
 73
4
 74
0
 40
0
 40
0
 40
0
 40
0
 40
1
 40
1
 40
1
 40
1
 10
589.828800
 20
332.508000
 30
0.0
 10
592.195200
 20
341.332800
 30
0.0
 10
592.908000
 20
350.198400
 30
0.0
 10
592.303200
 20
358.819200
 30
0.0
  0
LWPOLYLINE
  5
16d
100
AcDbEntity
  8
bullhead-vector-2
 62
7
100
AcDbPolyline
 90
2
 70
0
 10
464.505600
 20
262.749600
 30
0.0
 10
466.120800
 20
256.910400
 30
0.0
  0
SPLINE
  5
16e
100
AcDbEntity
  8
bullhead-vector-2
 62
7
100
AcDbSpline
 70
8
 71
3
 72
8
 73
4
 74
0
 40
0
 40
0
 40
0
 40
0
 40
1
 40
1
 40
1
 40
1
 10
61.665120
 20
288.628800
 30
0.0
 10
83.058720
 20
275.241600
 30
0.0
 10
112.161600
 20
266.539200
 30
0.0
 10
148.200000
 20
262.749600
 30
0.0
  0
LWPOLYLINE
  5
16f
100
AcDbEntity
  8
bullhead-vector-2
 62
7
100
AcDbPolyline
 90
2
 70
0
 10
592.303200
 20
358.819200
 30
0.0
 10
592.303200
 20
358.819200
 30
0.0
  0
SPLINE
  5
170
100
AcDbEntity
  8
bullhead-vector-2
 62
7
100
AcDbSpline
 70
8
 71
3
 72
8
 73
4
 74
0
 40
0
 40
0
 40
0
 40
0
 40
1
 40
1
 40
1
 40
1
 10
146.586480
 20
256.910400
 30
0.0
 10
54.120960
 20
266.318400
 30
0.0
 10
29.385120
 20
308.239200
 30
0.0
 10
22.877808
 20
332.508000
 30
0.0
  0
SPLINE
  5
171
100
AcDbEntity
  8
bullhead-vector-2
 62
7
100
AcDbSpline
 70
8
 71
3
 72
8
 73
4
 74
0
 40
0
 40
0
 40
0
 40
0
 40
1
 40
1
 40
1
 40
1
 10
22.877808
 20
332.508000
 30
0.0
 10
20.510616
 20
341.335200
 30
0.0
 10
19.798128
 20
350.203200
 30
0.0
 10
20.403744
 20
358.824000
 30
0.0
  0
SPLINE
  5
172
100
AcDbEntity
  8
bullhead-vector-2
 62
7
100
AcDbSpline
 70
8
 71
3
 72
8
 73
4
 74
0
 40
0
 40
0
 40
0
 40
0
 40
1
 40
1
 40
1
 40
1
 10
20.403744
 20
358.824000
 30
0.0
 10
20.307192
 20
350.832000
 30
0.0
 10
21.376872
 20
342.746400
 30
0.0
 10
23.867808
 20
334.802400
 30
0.0
  0
SPLINE
  5
173
100
AcDbEntity
  8
bullhead-vector-2
 62
7
100
AcDbSpline
 70
8
 71
3
 72
8
 73
4
 74
0
 40
0
 40
0
 40
0
 40
0
 40
1
 40
1
 40
1
 40
1
 10
23.867808
 20
334.802400
 30
0.0
 10
29.699040
 20
316.209600
 30
0.0
 10
42.415200
 20
300.674400
 30
0.0
 10
61.665120
 20
288.628800
 30
0.0
  0
LWPOLYLINE
  5
174
100
AcDbEntity
  8
bullhead-vector-2
 62
7
100
AcDbPolyline
 90
2
 70
0
 10
148.200000
 20
262.749600
 30
0.0
 10
146.586480
 20
256.910400
 30
0.0
  0
ENDSEC
  0
SECTION
  2
OBJECTS
  0
DICTIONARY
  5
C
330
0
100
AcDbDictionary
  3
ACAD_GROUP
350
D
  3
ACAD_MLINESTYLE
350
17
  0
DICTIONARY
  5
D
330
C
100
AcDbDictionary
  0
DICTIONARY
  5
1A
330
C
100
AcDbDictionary
  0
DICTIONARY
  5
17
330
C
100
AcDbDictionary
  3
STANDARD
350
18
  0
DICTIONARY
  5
19
330
C
100
AcDbDictionary
  0
ENDSEC
  0
EOF
