solid seilig 1223-ascii
   facet normal -9.798039e-001 1.999606e-001 0.000000e+000
      outer loop
         vertex 4.542687e-003 1.955321e-001 0.000000e+000
         vertex 4.542687e-003 1.955321e-001 6.250039e-002
         vertex 2.310254e-002 2.727670e-001 6.250039e-002
      endloop
   endfacet
   facet normal -9.679495e-001 2.511450e-001 0.000000e+000
      outer loop
         vertex 4.542687e-003 1.955321e-001 0.000000e+000
         vertex 2.310254e-002 2.727670e-001 6.250039e-002
         vertex 2.310254e-002 2.727670e-001 0.000000e+000
      endloop
   endfacet
   facet normal -9.358773e-001 3.523260e-001 0.000000e+000
      outer loop
         vertex 2.310254e-002 2.727670e-001 0.000000e+000
         vertex 2.310254e-002 2.727670e-001 6.250039e-002
         vertex 7.216837e-002 3.925535e-001 6.250039e-002
      endloop
   endfacet
   facet normal -9.155177e-001 4.022777e-001 0.000000e+000
      outer loop
         vertex 2.310254e-002 2.727670e-001 0.000000e+000
         vertex 7.216837e-002 3.925535e-001 6.250039e-002
         vertex 7.216837e-002 3.925535e-001 0.000000e+000
      endloop
   endfacet
   facet normal -8.673487e-001 4.977008e-001 0.000000e+000
      outer loop
         vertex 7.216837e-002 3.925535e-001 0.000000e+000
         vertex 7.216837e-002 3.925535e-001 6.250039e-002
         vertex 1.588830e-001 5.330507e-001 6.250039e-002
      endloop
   endfacet
   facet normal -8.396012e-001 5.432034e-001 0.000000e+000
      outer loop
         vertex 7.216837e-002 3.925535e-001 0.000000e+000
         vertex 1.588830e-001 5.330507e-001 6.250039e-002
         vertex 1.588830e-001 5.330507e-001 0.000000e+000
      endloop
   endfacet
   facet normal -7.819545e-001 6.233354e-001 0.000000e+000
      outer loop
         vertex 1.588830e-001 5.330507e-001 0.000000e+000
         vertex 1.588830e-001 5.330507e-001 6.250039e-002
         vertex 2.689230e-001 6.644962e-001 6.250039e-002
      endloop
   endfacet
   facet normal -7.526632e-001 6.584057e-001 0.000000e+000
      outer loop
         vertex 1.588830e-001 5.330507e-001 0.000000e+000
         vertex 2.689230e-001 6.644962e-001 6.250039e-002
         vertex 2.689230e-001 6.644962e-001 0.000000e+000
      endloop
   endfacet
   facet normal -6.927533e-001 7.211747e-001 0.000000e+000
      outer loop
         vertex 2.689230e-001 6.644962e-001 0.000000e+000
         vertex 2.689230e-001 6.644962e-001 6.250039e-002
         vertex 4.144545e-001 7.975696e-001 6.250039e-002
      endloop
   endfacet
   facet normal -6.624122e-001 7.491395e-001 0.000000e+000
      outer loop
         vertex 2.689230e-001 6.644962e-001 0.000000e+000
         vertex 4.144545e-001 7.975696e-001 6.250039e-002
         vertex 4.144545e-001 7.975696e-001 0.000000e+000
      endloop
   endfacet
   facet normal -6.030349e-001 7.977148e-001 0.000000e+000
      outer loop
         vertex 4.144545e-001 7.975696e-001 0.000000e+000
         vertex 4.144545e-001 7.975696e-001 6.250039e-002
         vertex 6.321627e-001 9.548600e-001 6.250039e-002
      endloop
   endfacet
   facet normal -5.742738e-001 8.186634e-001 0.000000e+000
      outer loop
         vertex 4.144545e-001 7.975696e-001 0.000000e+000
         vertex 6.321627e-001 9.548600e-001 6.250039e-002
         vertex 6.321627e-001 9.548600e-001 0.000000e+000
      endloop
   endfacet
   facet normal -5.213053e-001 8.533702e-001 0.000000e+000
      outer loop
         vertex 6.321627e-001 9.548600e-001 0.000000e+000
         vertex 6.321627e-001 9.548600e-001 6.250039e-002
         vertex 8.667092e-001 1.093237e+000 6.250039e-002
      endloop
   endfacet
   facet normal -4.973660e-001 8.675408e-001 0.000000e+000
      outer loop
         vertex 6.321627e-001 9.548600e-001 0.000000e+000
         vertex 8.667092e-001 1.093237e+000 6.250039e-002
         vertex 8.667092e-001 1.093237e+000 0.000000e+000
      endloop
   endfacet
   facet normal -4.512126e-001 8.924165e-001 0.000000e+000
      outer loop
         vertex 8.667092e-001 1.093237e+000 0.000000e+000
         vertex 8.667092e-001 1.093237e+000 6.250039e-002
         vertex 1.137445e+000 1.225502e+000 6.250039e-002
      endloop
   endfacet
   facet normal -4.290770e-001 9.032679e-001 0.000000e+000
      outer loop
         vertex 8.667092e-001 1.093237e+000 0.000000e+000
         vertex 1.137445e+000 1.225502e+000 6.250039e-002
         vertex 1.137445e+000 1.225502e+000 0.000000e+000
      endloop
   endfacet
   facet normal -3.842829e-001 9.232154e-001 0.000000e+000
      outer loop
         vertex 1.137445e+000 1.225502e+000 0.000000e+000
         vertex 1.137445e+000 1.225502e+000 6.250039e-002
         vertex 1.464403e+000 1.356660e+000 6.250039e-002
      endloop
   endfacet
   facet normal -3.616290e-001 9.323221e-001 0.000000e+000
      outer loop
         vertex 1.137445e+000 1.225502e+000 0.000000e+000
         vertex 1.464403e+000 1.356660e+000 6.250039e-002
         vertex 1.464403e+000 1.356660e+000 0.000000e+000
      endloop
   endfacet
   facet normal -3.175206e-001 9.482514e-001 0.000000e+000
      outer loop
         vertex 1.464403e+000 1.356660e+000 0.000000e+000
         vertex 1.464403e+000 1.356660e+000 6.250039e-002
         vertex 1.831822e+000 1.474701e+000 6.250039e-002
      endloop
   endfacet
   facet normal -2.960963e-001 9.551581e-001 0.000000e+000
      outer loop
         vertex 1.464403e+000 1.356660e+000 0.000000e+000
         vertex 1.831822e+000 1.474701e+000 6.250039e-002
         vertex 1.831822e+000 1.474701e+000 0.000000e+000
      endloop
   endfacet
   facet normal -2.531816e-001 9.674187e-001 0.000000e+000
      outer loop
         vertex 1.831822e+000 1.474701e+000 0.000000e+000
         vertex 1.831822e+000 1.474701e+000 6.250039e-002
         vertex 2.238005e+000 1.576034e+000 6.250039e-002
      endloop
   endfacet
   facet normal -2.316957e-001 9.727883e-001 0.000000e+000
      outer loop
         vertex 1.831822e+000 1.474701e+000 0.000000e+000
         vertex 2.238005e+000 1.576034e+000 6.250039e-002
         vertex 2.238005e+000 1.576034e+000 0.000000e+000
      endloop
   endfacet
   facet normal -1.883244e-001 9.821069e-001 0.000000e+000
      outer loop
         vertex 2.238005e+000 1.576034e+000 0.000000e+000
         vertex 2.238005e+000 1.576034e+000 6.250039e-002
         vertex 2.659632e+000 1.652244e+000 6.250039e-002
      endloop
   endfacet
   facet normal -1.664381e-001 9.860519e-001 0.000000e+000
      outer loop
         vertex 2.238005e+000 1.576034e+000 0.000000e+000
         vertex 2.659632e+000 1.652244e+000 6.250039e-002
         vertex 2.659632e+000 1.652244e+000 0.000000e+000
      endloop
   endfacet
   facet normal -1.221595e-001 9.925105e-001 0.000000e+000
      outer loop
         vertex 2.659632e+000 1.652244e+000 0.000000e+000
         vertex 2.659632e+000 1.652244e+000 6.250039e-002
         vertex 3.104010e+000 1.701501e+000 6.250039e-002
      endloop
   endfacet
   facet normal -9.976529e-002 9.950110e-001 0.000000e+000
      outer loop
         vertex 2.659632e+000 1.652244e+000 0.000000e+000
         vertex 3.104010e+000 1.701501e+000 6.250039e-002
         vertex 3.104010e+000 1.701501e+000 0.000000e+000
      endloop
   endfacet
   facet normal -5.526719e-002 9.984716e-001 0.000000e+000
      outer loop
         vertex 3.104010e+000 1.701501e+000 0.000000e+000
         vertex 3.104010e+000 1.701501e+000 6.250039e-002
         vertex 3.555253e+000 1.721357e+000 6.250039e-002
      endloop
   endfacet
   facet normal -3.316472e-002 9.994499e-001 0.000000e+000
      outer loop
         vertex 3.104010e+000 1.701501e+000 0.000000e+000
         vertex 3.555253e+000 1.721357e+000 6.250039e-002
         vertex 3.555253e+000 1.721357e+000 0.000000e+000
      endloop
   endfacet
   facet normal 6.609879e-003 9.999781e-001 0.000000e+000
      outer loop
         vertex 3.555253e+000 1.721357e+000 0.000000e+000
         vertex 3.555253e+000 1.721357e+000 6.250039e-002
         vertex 4.016975e+000 1.713192e+000 6.250039e-002
      endloop
   endfacet
   facet normal 2.428004e-002 9.997052e-001 0.000000e+000
      outer loop
         vertex 3.555253e+000 1.721357e+000 0.000000e+000
         vertex 4.016975e+000 1.713192e+000 6.250039e-002
         vertex 4.016975e+000 1.713192e+000 0.000000e+000
      endloop
   endfacet
   facet normal 5.685733e-002 9.983823e-001 0.000000e+000
      outer loop
         vertex 4.016975e+000 1.713192e+000 0.000000e+000
         vertex 4.016975e+000 1.713192e+000 6.250039e-002
         vertex 4.686519e+000 1.669597e+000 6.250039e-002
      endloop
   endfacet
   facet normal 7.176819e-002 9.974213e-001 0.000000e+000
      outer loop
         vertex 4.016975e+000 1.713192e+000 0.000000e+000
         vertex 4.686519e+000 1.669597e+000 6.250039e-002
         vertex 4.686519e+000 1.669597e+000 0.000000e+000
      endloop
   endfacet
   facet normal 9.783413e-002 9.952027e-001 0.000000e+000
      outer loop
         vertex 4.686519e+000 1.669597e+000 0.000000e+000
         vertex 4.686519e+000 1.669597e+000 6.250039e-002
         vertex 5.360348e+000 1.598640e+000 6.250039e-002
      endloop
   endfacet
   facet normal 1.089977e-001 9.940420e-001 0.000000e+000
      outer loop
         vertex 4.686519e+000 1.669597e+000 0.000000e+000
         vertex 5.360348e+000 1.598640e+000 6.250039e-002
         vertex 5.360348e+000 1.598640e+000 0.000000e+000
      endloop
   endfacet
   facet normal 1.290620e-001 9.916366e-001 0.000000e+000
      outer loop
         vertex 5.360348e+000 1.598640e+000 0.000000e+000
         vertex 5.360348e+000 1.598640e+000 6.250039e-002
         vertex 6.275304e+000 1.474044e+000 6.250039e-002
      endloop
   endfacet
   facet normal 1.379682e-001 9.904367e-001 0.000000e+000
      outer loop
         vertex 5.360348e+000 1.598640e+000 0.000000e+000
         vertex 6.275304e+000 1.474044e+000 6.250039e-002
         vertex 6.275304e+000 1.474044e+000 0.000000e+000
      endloop
   endfacet
   facet normal 1.548663e-001 9.879355e-001 0.000000e+000
      outer loop
         vertex 6.275304e+000 1.474044e+000 0.000000e+000
         vertex 6.275304e+000 1.474044e+000 6.250039e-002
         vertex 7.513881e+000 1.274436e+000 6.250039e-002
      endloop
   endfacet
   facet normal 1.628603e-001 9.866491e-001 0.000000e+000
      outer loop
         vertex 6.275304e+000 1.474044e+000 0.000000e+000
         vertex 7.513881e+000 1.274436e+000 6.250039e-002
         vertex 7.513881e+000 1.274436e+000 0.000000e+000
      endloop
   endfacet
   facet normal 1.789013e-001 9.838670e-001 0.000000e+000
      outer loop
         vertex 7.513881e+000 1.274436e+000 0.000000e+000
         vertex 7.513881e+000 1.274436e+000 6.250039e-002
         vertex 8.594438e+000 1.073687e+000 6.250039e-002
      endloop
   endfacet
   facet normal 1.869481e-001 9.823698e-001 0.000000e+000
      outer loop
         vertex 7.513881e+000 1.274436e+000 0.000000e+000
         vertex 8.594438e+000 1.073687e+000 6.250039e-002
         vertex 8.594438e+000 1.073687e+000 0.000000e+000
      endloop
   endfacet
   facet normal 2.038076e-001 9.790109e-001 0.000000e+000
      outer loop
         vertex 8.594438e+000 1.073687e+000 0.000000e+000
         vertex 8.594438e+000 1.073687e+000 6.250039e-002
         vertex 9.566328e+000 8.670875e-001 6.250039e-002
      endloop
   endfacet
   facet normal 2.126175e-001 9.771355e-001 0.000000e+000
      outer loop
         vertex 8.594438e+000 1.073687e+000 0.000000e+000
         vertex 9.566328e+000 8.670875e-001 6.250039e-002
         vertex 9.566328e+000 8.670875e-001 0.000000e+000
      endloop
   endfacet
   facet normal 2.310480e-001 9.729424e-001 0.000000e+000
      outer loop
         vertex 9.566328e+000 8.670875e-001 0.000000e+000
         vertex 9.566328e+000 8.670875e-001 6.250039e-002
         vertex 1.042930e+001 6.580631e-001 6.250039e-002
      endloop
   endfacet
   facet normal 2.406648e-001 9.706084e-001 0.000000e+000
      outer loop
         vertex 9.566328e+000 8.670875e-001 0.000000e+000
         vertex 1.042930e+001 6.580631e-001 6.250039e-002
         vertex 1.042930e+001 6.580631e-001 0.000000e+000
      endloop
   endfacet
   facet normal 2.609944e-001 9.653403e-001 0.000000e+000
      outer loop
         vertex 1.042930e+001 6.580631e-001 0.000000e+000
         vertex 1.042930e+001 6.580631e-001 6.250039e-002
         vertex 1.114655e+001 4.606338e-001 6.250039e-002
      endloop
   endfacet
   facet normal 2.717009e-001 9.623817e-001 0.000000e+000
      outer loop
         vertex 1.042930e+001 6.580631e-001 0.000000e+000
         vertex 1.114655e+001 4.606338e-001 6.250039e-002
         vertex 1.114655e+001 4.606338e-001 0.000000e+000
      endloop
   endfacet
   facet normal 2.942230e-001 9.557368e-001 0.000000e+000
      outer loop
         vertex 1.114655e+001 4.606338e-001 0.000000e+000
         vertex 1.114655e+001 4.606338e-001 6.250039e-002
         vertex 1.170119e+001 2.867996e-001 6.250039e-002
      endloop
   endfacet
   facet normal 3.060301e-001 9.520218e-001 0.000000e+000
      outer loop
         vertex 1.114655e+001 4.606338e-001 0.000000e+000
         vertex 1.170119e+001 2.867996e-001 6.250039e-002
         vertex 1.170119e+001 2.867996e-001 0.000000e+000
      endloop
   endfacet
   facet normal 3.272761e-001 9.449288e-001 0.000000e+000
      outer loop
         vertex 1.170119e+001 2.867996e-001 0.000000e+000
         vertex 1.170119e+001 2.867996e-001 6.250039e-002
         vertex 1.200301e+001 1.809185e-001 6.250039e-002
      endloop
   endfacet
   facet normal 3.367318e-001 9.416006e-001 0.000000e+000
      outer loop
         vertex 1.170119e+001 2.867996e-001 0.000000e+000
         vertex 1.200301e+001 1.809185e-001 6.250039e-002
         vertex 1.200301e+001 1.809185e-001 0.000000e+000
      endloop
   endfacet
   facet normal -2.670010e-001 -9.636962e-001 0.000000e+000
      outer loop
         vertex 1.186799e+001 2.183273e-001 0.000000e+000
         vertex 1.200301e+001 1.809185e-001 0.000000e+000
         vertex 1.186799e+001 2.183273e-001 6.250039e-002
      endloop
   endfacet
   facet normal -2.670010e-001 -9.636962e-001 0.000000e+000
      outer loop
         vertex 1.186799e+001 2.183273e-001 6.250039e-002
         vertex 1.200301e+001 1.809185e-001 0.000000e+000
         vertex 1.200301e+001 1.809185e-001 6.250039e-002
      endloop
   endfacet
   facet normal -2.407933e-001 -9.705764e-001 0.000000e+000
      outer loop
         vertex 1.186799e+001 2.183273e-001 0.000000e+000
         vertex 1.186799e+001 2.183273e-001 6.250039e-002
         vertex 1.135007e+001 3.411626e-001 6.250039e-002
      endloop
   endfacet
   facet normal -2.229111e-001 -9.748387e-001 0.000000e+000
      outer loop
         vertex 1.186799e+001 2.183273e-001 0.000000e+000
         vertex 1.135007e+001 3.411626e-001 6.250039e-002
         vertex 1.135007e+001 3.411626e-001 0.000000e+000
      endloop
   endfacet
   facet normal -1.903816e-001 -9.817101e-001 0.000000e+000
      outer loop
         vertex 1.135007e+001 3.411626e-001 0.000000e+000
         vertex 1.135007e+001 3.411626e-001 6.250039e-002
         vertex 1.081797e+001 4.398464e-001 6.250039e-002
      endloop
   endfacet
   facet normal -1.757582e-001 -9.844334e-001 0.000000e+000
      outer loop
         vertex 1.135007e+001 3.411626e-001 0.000000e+000
         vertex 1.081797e+001 4.398464e-001 6.250039e-002
         vertex 1.081797e+001 4.398464e-001 0.000000e+000
      endloop
   endfacet
   facet normal -1.472486e-001 -9.890995e-001 0.000000e+000
      outer loop
         vertex 1.081797e+001 4.398464e-001 0.000000e+000
         vertex 1.081797e+001 4.398464e-001 6.250039e-002
         vertex 1.021512e+001 5.249857e-001 6.250039e-002
      endloop
   endfacet
   facet normal -1.333664e-001 -9.910668e-001 0.000000e+000
      outer loop
         vertex 1.081797e+001 4.398464e-001 0.000000e+000
         vertex 1.021512e+001 5.249857e-001 6.250039e-002
         vertex 1.021512e+001 5.249857e-001 0.000000e+000
      endloop
   endfacet
   facet normal -1.063391e-001 -9.943299e-001 0.000000e+000
      outer loop
         vertex 1.021512e+001 5.249857e-001 0.000000e+000
         vertex 1.021512e+001 5.249857e-001 6.250039e-002
         vertex 9.549908e+000 5.913281e-001 6.250039e-002
      endloop
   endfacet
   facet normal -9.319668e-002 -9.956477e-001 0.000000e+000
      outer loop
         vertex 1.021512e+001 5.249857e-001 0.000000e+000
         vertex 9.549908e+000 5.913281e-001 6.250039e-002
         vertex 9.549908e+000 5.913281e-001 0.000000e+000
      endloop
   endfacet
   facet normal -6.767123e-002 -9.977077e-001 0.000000e+000
      outer loop
         vertex 9.549908e+000 5.913281e-001 0.000000e+000
         vertex 9.549908e+000 5.913281e-001 6.250039e-002
         vertex 8.831059e+000 6.353543e-001 6.250039e-002
      endloop
   endfacet
   facet normal -5.528980e-002 -9.984703e-001 0.000000e+000
      outer loop
         vertex 9.549908e+000 5.913281e-001 0.000000e+000
         vertex 8.831059e+000 6.353543e-001 6.250039e-002
         vertex 8.831059e+000 6.353543e-001 0.000000e+000
      endloop
   endfacet
   facet normal -3.094356e-002 -9.995211e-001 0.000000e+000
      outer loop
         vertex 8.831059e+000 6.353543e-001 0.000000e+000
         vertex 8.831059e+000 6.353543e-001 6.250039e-002
         vertex 8.056916e+000 6.544233e-001 6.250039e-002
      endloop
   endfacet
   facet normal -1.897919e-002 -9.998199e-001 0.000000e+000
      outer loop
         vertex 8.831059e+000 6.353543e-001 0.000000e+000
         vertex 8.056916e+000 6.544233e-001 6.250039e-002
         vertex 8.056916e+000 6.544233e-001 0.000000e+000
      endloop
   endfacet
   facet normal 4.213246e-003 -9.999911e-001 0.000000e+000
      outer loop
         vertex 8.056916e+000 6.544233e-001 0.000000e+000
         vertex 8.056916e+000 6.544233e-001 6.250039e-002
         vertex 7.239409e+000 6.461326e-001 6.250039e-002
      endloop
   endfacet
   facet normal 1.544119e-002 -9.998808e-001 0.000000e+000
      outer loop
         vertex 8.056916e+000 6.544233e-001 0.000000e+000
         vertex 7.239409e+000 6.461326e-001 6.250039e-002
         vertex 7.239409e+000 6.461326e-001 0.000000e+000
      endloop
   endfacet
   facet normal 3.759490e-002 -9.992931e-001 0.000000e+000
      outer loop
         vertex 7.239409e+000 6.461326e-001 0.000000e+000
         vertex 7.239409e+000 6.461326e-001 6.250039e-002
         vertex 6.372908e+000 6.086154e-001 6.250039e-002
      endloop
   endfacet
   facet normal 4.852083e-002 -9.988222e-001 0.000000e+000
      outer loop
         vertex 7.239409e+000 6.461326e-001 0.000000e+000
         vertex 6.372908e+000 6.086154e-001 6.250039e-002
         vertex 6.372908e+000 6.086154e-001 0.000000e+000
      endloop
   endfacet
   facet normal 6.992465e-002 -9.975523e-001 0.000000e+000
      outer loop
         vertex 6.372908e+000 6.086154e-001 0.000000e+000
         vertex 6.372908e+000 6.086154e-001 6.250039e-002
         vertex 5.420993e+000 5.365083e-001 6.250039e-002
      endloop
   endfacet
   facet normal 8.040307e-002 -9.967625e-001 0.000000e+000
      outer loop
         vertex 6.372908e+000 6.086154e-001 0.000000e+000
         vertex 5.420993e+000 5.365083e-001 6.250039e-002
         vertex 5.420993e+000 5.365083e-001 0.000000e+000
      endloop
   endfacet
   facet normal 9.996622e-002 -9.949908e-001 0.000000e+000
      outer loop
         vertex 5.420993e+000 5.365083e-001 0.000000e+000
         vertex 5.420993e+000 5.365083e-001 6.250039e-002
         vertex 4.459814e+000 4.350156e-001 6.250039e-002
      endloop
   endfacet
   facet normal 1.090534e-001 -9.940360e-001 0.000000e+000
      outer loop
         vertex 5.420993e+000 5.365083e-001 0.000000e+000
         vertex 4.459814e+000 4.350156e-001 6.250039e-002
         vertex 4.459814e+000 4.350156e-001 0.000000e+000
      endloop
   endfacet
   facet normal 1.251372e-001 -9.921394e-001 0.000000e+000
      outer loop
         vertex 4.459814e+000 4.350156e-001 0.000000e+000
         vertex 4.459814e+000 4.350156e-001 6.250039e-002
         vertex 3.432221e+000 3.006687e-001 6.250039e-002
      endloop
   endfacet
   facet normal 1.321379e-001 -9.912314e-001 0.000000e+000
      outer loop
         vertex 4.459814e+000 4.350156e-001 0.000000e+000
         vertex 3.432221e+000 3.006687e-001 6.250039e-002
         vertex 3.432221e+000 3.006687e-001 0.000000e+000
      endloop
   endfacet
   facet normal 1.408188e-001 -9.900354e-001 0.000000e+000
      outer loop
         vertex 3.432221e+000 3.006687e-001 0.000000e+000
         vertex 3.432221e+000 3.006687e-001 6.250039e-002
         vertex 2.697968e+000 1.949976e-001 6.250039e-002
      endloop
   endfacet
   facet normal 1.425055e-001 -9.897940e-001 0.000000e+000
      outer loop
         vertex 3.432221e+000 3.006687e-001 0.000000e+000
         vertex 2.697968e+000 1.949976e-001 6.250039e-002
         vertex 2.697968e+000 1.949976e-001 0.000000e+000
      endloop
   endfacet
   facet normal 1.373511e-001 -9.905224e-001 0.000000e+000
      outer loop
         vertex 2.697968e+000 1.949976e-001 0.000000e+000
         vertex 2.697968e+000 1.949976e-001 6.250039e-002
         vertex 2.050781e+000 1.046979e-001 6.250039e-002
      endloop
   endfacet
   facet normal 1.305035e-001 -9.914479e-001 0.000000e+000
      outer loop
         vertex 2.697968e+000 1.949976e-001 0.000000e+000
         vertex 2.050781e+000 1.046979e-001 6.250039e-002
         vertex 2.050781e+000 1.046979e-001 0.000000e+000
      endloop
   endfacet
   facet normal 1.083534e-001 -9.941124e-001 0.000000e+000
      outer loop
         vertex 2.050781e+000 1.046979e-001 0.000000e+000
         vertex 2.050781e+000 1.046979e-001 6.250039e-002
         vertex 1.454902e+000 4.485810e-002 6.250039e-002
      endloop
   endfacet
   facet normal 9.302743e-002 -9.956635e-001 0.000000e+000
      outer loop
         vertex 2.050781e+000 1.046979e-001 0.000000e+000
         vertex 1.454902e+000 4.485810e-002 6.250039e-002
         vertex 1.454902e+000 4.485810e-002 0.000000e+000
      endloop
   endfacet
   facet normal 7.268500e-002 -9.973550e-001 0.000000e+000
      outer loop
         vertex 1.454902e+000 4.485810e-002 0.000000e+000
         vertex 1.454902e+000 4.485810e-002 6.250039e-002
         vertex 1.179123e+000 2.542846e-002 6.250039e-002
      endloop
   endfacet
   facet normal 6.768502e-002 -9.977068e-001 0.000000e+000
      outer loop
         vertex 1.454902e+000 4.485810e-002 0.000000e+000
         vertex 1.179123e+000 2.542846e-002 6.250039e-002
         vertex 1.179123e+000 2.542846e-002 0.000000e+000
      endloop
   endfacet
   facet normal 4.819601e-002 -9.988379e-001 0.000000e+000
      outer loop
         vertex 1.179123e+000 2.542846e-002 0.000000e+000
         vertex 1.179123e+000 2.542846e-002 6.250039e-002
         vertex 6.333468e-001 1.894490e-003 6.250039e-002
      endloop
   endfacet
   facet normal 3.369536e-002 -9.994321e-001 0.000000e+000
      outer loop
         vertex 1.179123e+000 2.542846e-002 0.000000e+000
         vertex 6.333468e-001 1.894490e-003 6.250039e-002
         vertex 6.333468e-001 1.894490e-003 0.000000e+000
      endloop
   endfacet
   facet normal -2.822001e-003 -9.999960e-001 0.000000e+000
      outer loop
         vertex 6.333468e-001 1.894490e-003 0.000000e+000
         vertex 6.333468e-001 1.894490e-003 6.250039e-002
         vertex 3.221312e-001 3.228224e-003 6.250039e-002
      endloop
   endfacet
   facet normal -2.484397e-002 -9.996913e-001 0.000000e+000
      outer loop
         vertex 6.333468e-001 1.894490e-003 0.000000e+000
         vertex 3.221312e-001 3.228224e-003 6.250039e-002
         vertex 3.221312e-001 3.228224e-003 0.000000e+000
      endloop
   endfacet
   facet normal -5.931256e-002 -9.982394e-001 0.000000e+000
      outer loop
         vertex 3.221312e-001 3.228224e-003 0.000000e+000
         vertex 3.221312e-001 3.228224e-003 6.250039e-002
         vertex 1.857777e-001 1.256728e-002 6.250039e-002
      endloop
   endfacet
   facet normal -7.177462e-002 -9.974209e-001 0.000000e+000
      outer loop
         vertex 3.221312e-001 3.228224e-003 0.000000e+000
         vertex 1.857777e-001 1.256728e-002 6.250039e-002
         vertex 1.857777e-001 1.256728e-002 0.000000e+000
      endloop
   endfacet
   facet normal -1.243085e-001 -9.922436e-001 0.000000e+000
      outer loop
         vertex 1.857777e-001 1.256728e-002 0.000000e+000
         vertex 1.857777e-001 1.256728e-002 6.250039e-002
         vertex 8.597955e-002 2.419220e-002 6.250039e-002
      endloop
   endfacet
   facet normal -1.642563e-001 -9.864177e-001 0.000000e+000
      outer loop
         vertex 1.857777e-001 1.256728e-002 0.000000e+000
         vertex 8.597955e-002 2.419220e-002 6.250039e-002
         vertex 8.597955e-002 2.419220e-002 0.000000e+000
      endloop
   endfacet
   facet normal -2.493691e-001 -9.684085e-001 0.000000e+000
      outer loop
         vertex 8.597955e-002 2.419220e-002 0.000000e+000
         vertex 8.597955e-002 2.419220e-002 6.250039e-002
         vertex 5.362412e-002 3.315717e-002 6.250039e-002
      endloop
   endfacet
   facet normal -2.944197e-001 -9.556762e-001 0.000000e+000
      outer loop
         vertex 8.597955e-002 2.419220e-002 0.000000e+000
         vertex 5.362412e-002 3.315717e-002 6.250039e-002
         vertex 5.362412e-002 3.315717e-002 0.000000e+000
      endloop
   endfacet
   facet normal -3.773845e-001 -9.260567e-001 0.000000e+000
      outer loop
         vertex 5.362412e-002 3.315717e-002 0.000000e+000
         vertex 5.362412e-002 3.315717e-002 6.250039e-002
         vertex 3.597997e-002 4.068068e-002 6.250039e-002
      endloop
   endfacet
   facet normal -4.154581e-001 -9.096123e-001 0.000000e+000
      outer loop
         vertex 5.362412e-002 3.315717e-002 0.000000e+000
         vertex 3.597997e-002 4.068068e-002 6.250039e-002
         vertex 3.597997e-002 4.068068e-002 0.000000e+000
      endloop
   endfacet
   facet normal -4.969371e-001 -8.677866e-001 0.000000e+000
      outer loop
         vertex 3.597997e-002 4.068068e-002 0.000000e+000
         vertex 3.597997e-002 4.068068e-002 6.250039e-002
         vertex 2.491883e-002 4.728163e-002 6.250039e-002
      endloop
   endfacet
   facet normal -5.399748e-001 -8.416812e-001 0.000000e+000
      outer loop
         vertex 3.597997e-002 4.068068e-002 0.000000e+000
         vertex 2.491883e-002 4.728163e-002 6.250039e-002
         vertex 2.491883e-002 4.728163e-002 0.000000e+000
      endloop
   endfacet
   facet normal -6.218173e-001 -7.831624e-001 0.000000e+000
      outer loop
         vertex 2.491883e-002 4.728163e-002 0.000000e+000
         vertex 2.491883e-002 4.728163e-002 6.250039e-002
         vertex 1.941952e-002 5.179136e-002 6.250039e-002
      endloop
   endfacet
   facet normal -6.606087e-001 -7.507303e-001 0.000000e+000
      outer loop
         vertex 2.491883e-002 4.728163e-002 0.000000e+000
         vertex 1.941952e-002 5.179136e-002 6.250039e-002
         vertex 1.941952e-002 5.179136e-002 0.000000e+000
      endloop
   endfacet
   facet normal -7.344557e-001 -6.786566e-001 0.000000e+000
      outer loop
         vertex 1.941952e-002 5.179136e-002 0.000000e+000
         vertex 1.941952e-002 5.179136e-002 6.250039e-002
         vertex 1.649155e-002 5.510412e-002 6.250039e-002
      endloop
   endfacet
   facet normal -7.693402e-001 -6.388392e-001 0.000000e+000
      outer loop
         vertex 1.941952e-002 5.179136e-002 0.000000e+000
         vertex 1.649155e-002 5.510412e-002 6.250039e-002
         vertex 1.649155e-002 5.510412e-002 0.000000e+000
      endloop
   endfacet
   facet normal -8.319696e-001 -5.548211e-001 0.000000e+000
      outer loop
         vertex 1.649155e-002 5.510412e-002 0.000000e+000
         vertex 1.649155e-002 5.510412e-002 6.250039e-002
         vertex 1.404812e-002 5.902895e-002 6.250039e-002
      endloop
   endfacet
   facet normal -8.597782e-001 -5.106677e-001 0.000000e+000
      outer loop
         vertex 1.649155e-002 5.510412e-002 0.000000e+000
         vertex 1.404812e-002 5.902895e-002 6.250039e-002
         vertex 1.404812e-002 5.902895e-002 0.000000e+000
      endloop
   endfacet
   facet normal -9.061538e-001 -4.229482e-001 0.000000e+000
      outer loop
         vertex 1.404812e-002 5.902895e-002 0.000000e+000
         vertex 1.404812e-002 5.902895e-002 6.250039e-002
         vertex 1.088563e-002 6.645758e-002 6.250039e-002
      endloop
   endfacet
   facet normal -9.251480e-001 -3.796066e-001 0.000000e+000
      outer loop
         vertex 1.404812e-002 5.902895e-002 0.000000e+000
         vertex 1.088563e-002 6.645758e-002 6.250039e-002
         vertex 1.088563e-002 6.645758e-002 0.000000e+000
      endloop
   endfacet
   facet normal -9.581329e-001 -2.863238e-001 0.000000e+000
      outer loop
         vertex 1.088563e-002 6.645758e-002 0.000000e+000
         vertex 1.088563e-002 6.645758e-002 6.250039e-002
         vertex 6.043722e-003 8.528193e-002 6.250039e-002
      endloop
   endfacet
   facet normal -9.716970e-001 -2.362306e-001 0.000000e+000
      outer loop
         vertex 1.088563e-002 6.645758e-002 0.000000e+000
         vertex 6.043722e-003 8.528193e-002 6.250039e-002
         vertex 6.043722e-003 8.528193e-002 0.000000e+000
      endloop
   endfacet
   facet normal -9.844590e-001 -1.756148e-001 0.000000e+000
      outer loop
         vertex 6.043722e-003 8.528193e-002 0.000000e+000
         vertex 6.043722e-003 8.528193e-002 6.250039e-002
         vertex 4.862978e-003 9.212922e-002 6.250039e-002
      endloop
   endfacet
   facet normal -9.861977e-001 -1.655723e-001 0.000000e+000
      outer loop
         vertex 6.043722e-003 8.528193e-002 0.000000e+000
         vertex 4.862978e-003 9.212922e-002 6.250039e-002
         vertex 4.862978e-003 9.212922e-002 0.000000e+000
      endloop
   endfacet
   facet normal -9.949262e-001 -1.006085e-001 0.000000e+000
      outer loop
         vertex 4.862978e-003 9.212922e-002 0.000000e+000
         vertex 4.862978e-003 9.212922e-002 6.250039e-002
         vertex 7.504609e-004 1.484191e-001 6.250039e-002
      endloop
   endfacet
   facet normal -9.989768e-001 -4.522464e-002 0.000000e+000
      outer loop
         vertex 4.862978e-003 9.212922e-002 0.000000e+000
         vertex 7.504609e-004 1.484191e-001 6.250039e-002
         vertex 7.504609e-004 1.484191e-001 0.000000e+000
      endloop
   endfacet
   facet normal -9.990993e-001 4.243405e-002 0.000000e+000
      outer loop
         vertex 7.504609e-004 1.484191e-001 0.000000e+000
         vertex 7.504609e-004 1.484191e-001 6.250039e-002
         vertex 2.655839e-003 1.809185e-001 6.250039e-002
      endloop
   endfacet
   facet normal -9.972038e-001 7.472946e-002 0.000000e+000
      outer loop
         vertex 7.504609e-004 1.484191e-001 0.000000e+000
         vertex 2.655839e-003 1.809185e-001 6.250039e-002
         vertex 2.655839e-003 1.809185e-001 0.000000e+000
      endloop
   endfacet
   facet normal -9.917674e-001 1.280525e-001 0.000000e+000
      outer loop
         vertex 4.542687e-003 1.955321e-001 0.000000e+000
         vertex 2.655839e-003 1.809185e-001 0.000000e+000
         vertex 4.542687e-003 1.955321e-001 6.250039e-002
      endloop
   endfacet
   facet normal -9.917674e-001 1.280525e-001 0.000000e+000
      outer loop
         vertex 4.542687e-003 1.955321e-001 6.250039e-002
         vertex 2.655839e-003 1.809185e-001 0.000000e+000
         vertex 2.655839e-003 1.809185e-001 6.250039e-002
      endloop
   endfacet
   facet normal 0.000000e+000 0.000000e+000 -1.000000e+000
      outer loop
         vertex 1.200301e+001 1.809185e-001 0.000000e+000
         vertex 1.186799e+001 2.183273e-001 0.000000e+000
         vertex 1.170119e+001 2.867996e-001 0.000000e+000
      endloop
   endfacet
   facet normal 0.000000e+000 0.000000e+000 -1.000000e+000
      outer loop
         vertex 1.170119e+001 2.867996e-001 0.000000e+000
         vertex 1.186799e+001 2.183273e-001 0.000000e+000
         vertex 1.135007e+001 3.411626e-001 0.000000e+000
      endloop
   endfacet
   facet normal 0.000000e+000 0.000000e+000 -1.000000e+000
      outer loop
         vertex 1.170119e+001 2.867996e-001 0.000000e+000
         vertex 1.135007e+001 3.411626e-001 0.000000e+000
         vertex 1.114655e+001 4.606338e-001 0.000000e+000
      endloop
   endfacet
   facet normal 0.000000e+000 0.000000e+000 -1.000000e+000
      outer loop
         vertex 1.114655e+001 4.606338e-001 0.000000e+000
         vertex 1.135007e+001 3.411626e-001 0.000000e+000
         vertex 1.081797e+001 4.398464e-001 0.000000e+000
      endloop
   endfacet
   facet normal 0.000000e+000 0.000000e+000 -1.000000e+000
      outer loop
         vertex 1.114655e+001 4.606338e-001 0.000000e+000
         vertex 1.081797e+001 4.398464e-001 0.000000e+000
         vertex 1.042930e+001 6.580631e-001 0.000000e+000
      endloop
   endfacet
   facet normal 0.000000e+000 0.000000e+000 -1.000000e+000
      outer loop
         vertex 1.042930e+001 6.580631e-001 0.000000e+000
         vertex 1.081797e+001 4.398464e-001 0.000000e+000
         vertex 1.021512e+001 5.249857e-001 0.000000e+000
      endloop
   endfacet
   facet normal 0.000000e+000 0.000000e+000 -1.000000e+000
      outer loop
         vertex 1.042930e+001 6.580631e-001 0.000000e+000
         vertex 1.021512e+001 5.249857e-001 0.000000e+000
         vertex 9.566328e+000 8.670875e-001 0.000000e+000
      endloop
   endfacet
   facet normal 0.000000e+000 0.000000e+000 -1.000000e+000
      outer loop
         vertex 9.566328e+000 8.670875e-001 0.000000e+000
         vertex 1.021512e+001 5.249857e-001 0.000000e+000
         vertex 9.549908e+000 5.913281e-001 0.000000e+000
      endloop
   endfacet
   facet normal 0.000000e+000 0.000000e+000 -1.000000e+000
      outer loop
         vertex 9.566328e+000 8.670875e-001 0.000000e+000
         vertex 9.549908e+000 5.913281e-001 0.000000e+000
         vertex 8.594438e+000 1.073687e+000 0.000000e+000
      endloop
   endfacet
   facet normal 0.000000e+000 0.000000e+000 -1.000000e+000
      outer loop
         vertex 8.594438e+000 1.073687e+000 0.000000e+000
         vertex 9.549908e+000 5.913281e-001 0.000000e+000
         vertex 8.831059e+000 6.353543e-001 0.000000e+000
      endloop
   endfacet
   facet normal 0.000000e+000 0.000000e+000 -1.000000e+000
      outer loop
         vertex 8.594438e+000 1.073687e+000 0.000000e+000
         vertex 8.831059e+000 6.353543e-001 0.000000e+000
         vertex 7.513881e+000 1.274436e+000 0.000000e+000
      endloop
   endfacet
   facet normal 0.000000e+000 0.000000e+000 -1.000000e+000
      outer loop
         vertex 8.831059e+000 6.353543e-001 0.000000e+000
         vertex 8.056916e+000 6.544233e-001 0.000000e+000
         vertex 7.513881e+000 1.274436e+000 0.000000e+000
      endloop
   endfacet
   facet normal 0.000000e+000 0.000000e+000 -1.000000e+000
      outer loop
         vertex 7.513881e+000 1.274436e+000 0.000000e+000
         vertex 8.056916e+000 6.544233e-001 0.000000e+000
         vertex 7.239409e+000 6.461326e-001 0.000000e+000
      endloop
   endfacet
   facet normal 0.000000e+000 0.000000e+000 -1.000000e+000
      outer loop
         vertex 7.513881e+000 1.274436e+000 0.000000e+000
         vertex 7.239409e+000 6.461326e-001 0.000000e+000
         vertex 6.275304e+000 1.474044e+000 0.000000e+000
      endloop
   endfacet
   facet normal 0.000000e+000 0.000000e+000 -1.000000e+000
      outer loop
         vertex 6.275304e+000 1.474044e+000 0.000000e+000
         vertex 7.239409e+000 6.461326e-001 0.000000e+000
         vertex 6.372908e+000 6.086154e-001 0.000000e+000
      endloop
   endfacet
   facet normal 0.000000e+000 0.000000e+000 -1.000000e+000
      outer loop
         vertex 6.275304e+000 1.474044e+000 0.000000e+000
         vertex 6.372908e+000 6.086154e-001 0.000000e+000
         vertex 5.360348e+000 1.598640e+000 0.000000e+000
      endloop
   endfacet
   facet normal 0.000000e+000 0.000000e+000 -1.000000e+000
      outer loop
         vertex 5.360348e+000 1.598640e+000 0.000000e+000
         vertex 6.372908e+000 6.086154e-001 0.000000e+000
         vertex 5.420993e+000 5.365083e-001 0.000000e+000
      endloop
   endfacet
   facet normal 0.000000e+000 0.000000e+000 -1.000000e+000
      outer loop
         vertex 5.360348e+000 1.598640e+000 0.000000e+000
         vertex 5.420993e+000 5.365083e-001 0.000000e+000
         vertex 4.686519e+000 1.669597e+000 0.000000e+000
      endloop
   endfacet
   facet normal 0.000000e+000 0.000000e+000 -1.000000e+000
      outer loop
         vertex 4.686519e+000 1.669597e+000 0.000000e+000
         vertex 5.420993e+000 5.365083e-001 0.000000e+000
         vertex 4.459814e+000 4.350156e-001 0.000000e+000
      endloop
   endfacet
   facet normal 0.000000e+000 0.000000e+000 -1.000000e+000
      outer loop
         vertex 3.432221e+000 3.006687e-001 0.000000e+000
         vertex 3.555253e+000 1.721357e+000 0.000000e+000
         vertex 4.459814e+000 4.350156e-001 0.000000e+000
      endloop
   endfacet
   facet normal 0.000000e+000 0.000000e+000 -1.000000e+000
      outer loop
         vertex 4.459814e+000 4.350156e-001 0.000000e+000
         vertex 3.555253e+000 1.721357e+000 0.000000e+000
         vertex 4.016975e+000 1.713192e+000 0.000000e+000
      endloop
   endfacet
   facet normal 0.000000e+000 0.000000e+000 -1.000000e+000
      outer loop
         vertex 4.459814e+000 4.350156e-001 0.000000e+000
         vertex 4.016975e+000 1.713192e+000 0.000000e+000
         vertex 4.686519e+000 1.669597e+000 0.000000e+000
      endloop
   endfacet
   facet normal 0.000000e+000 0.000000e+000 -1.000000e+000
      outer loop
         vertex 1.179123e+000 2.542846e-002 0.000000e+000
         vertex 1.137445e+000 1.225502e+000 0.000000e+000
         vertex 1.454902e+000 4.485810e-002 0.000000e+000
      endloop
   endfacet
   facet normal 0.000000e+000 0.000000e+000 -1.000000e+000
      outer loop
         vertex 1.454902e+000 4.485810e-002 0.000000e+000
         vertex 1.137445e+000 1.225502e+000 0.000000e+000
         vertex 1.464403e+000 1.356660e+000 0.000000e+000
      endloop
   endfacet
   facet normal 0.000000e+000 0.000000e+000 -1.000000e+000
      outer loop
         vertex 1.454902e+000 4.485810e-002 0.000000e+000
         vertex 1.464403e+000 1.356660e+000 0.000000e+000
         vertex 2.050781e+000 1.046979e-001 0.000000e+000
      endloop
   endfacet
   facet normal 0.000000e+000 0.000000e+000 -1.000000e+000
      outer loop
         vertex 1.464403e+000 1.356660e+000 0.000000e+000
         vertex 1.831822e+000 1.474701e+000 0.000000e+000
         vertex 2.050781e+000 1.046979e-001 0.000000e+000
      endloop
   endfacet
   facet normal 0.000000e+000 0.000000e+000 -1.000000e+000
      outer loop
         vertex 2.050781e+000 1.046979e-001 0.000000e+000
         vertex 1.831822e+000 1.474701e+000 0.000000e+000
         vertex 2.238005e+000 1.576034e+000 0.000000e+000
      endloop
   endfacet
   facet normal 0.000000e+000 0.000000e+000 -1.000000e+000
      outer loop
         vertex 2.050781e+000 1.046979e-001 0.000000e+000
         vertex 2.238005e+000 1.576034e+000 0.000000e+000
         vertex 2.697968e+000 1.949976e-001 0.000000e+000
      endloop
   endfacet
   facet normal 0.000000e+000 0.000000e+000 -1.000000e+000
      outer loop
         vertex 2.697968e+000 1.949976e-001 0.000000e+000
         vertex 2.238005e+000 1.576034e+000 0.000000e+000
         vertex 2.659632e+000 1.652244e+000 0.000000e+000
      endloop
   endfacet
   facet normal 0.000000e+000 0.000000e+000 -1.000000e+000
      outer loop
         vertex 2.697968e+000 1.949976e-001 0.000000e+000
         vertex 2.659632e+000 1.652244e+000 0.000000e+000
         vertex 3.432221e+000 3.006687e-001 0.000000e+000
      endloop
   endfacet
   facet normal 0.000000e+000 0.000000e+000 -1.000000e+000
      outer loop
         vertex 3.432221e+000 3.006687e-001 0.000000e+000
         vertex 2.659632e+000 1.652244e+000 0.000000e+000
         vertex 3.104010e+000 1.701501e+000 0.000000e+000
      endloop
   endfacet
   facet normal 0.000000e+000 0.000000e+000 -1.000000e+000
      outer loop
         vertex 3.432221e+000 3.006687e-001 0.000000e+000
         vertex 3.104010e+000 1.701501e+000 0.000000e+000
         vertex 3.555253e+000 1.721357e+000 0.000000e+000
      endloop
   endfacet
   facet normal 0.000000e+000 0.000000e+000 -1.000000e+000
      outer loop
         vertex 1.857777e-001 1.256728e-002 0.000000e+000
         vertex 2.689230e-001 6.644962e-001 0.000000e+000
         vertex 3.221312e-001 3.228224e-003 0.000000e+000
      endloop
   endfacet
   facet normal 0.000000e+000 0.000000e+000 -1.000000e+000
      outer loop
         vertex 3.221312e-001 3.228224e-003 0.000000e+000
         vertex 2.689230e-001 6.644962e-001 0.000000e+000
         vertex 4.144545e-001 7.975696e-001 0.000000e+000
      endloop
   endfacet
   facet normal 0.000000e+000 0.000000e+000 -1.000000e+000
      outer loop
         vertex 3.221312e-001 3.228224e-003 0.000000e+000
         vertex 4.144545e-001 7.975696e-001 0.000000e+000
         vertex 6.333468e-001 1.894490e-003 0.000000e+000
      endloop
   endfacet
   facet normal 0.000000e+000 0.000000e+000 -1.000000e+000
      outer loop
         vertex 6.333468e-001 1.894490e-003 0.000000e+000
         vertex 4.144545e-001 7.975696e-001 0.000000e+000
         vertex 6.321627e-001 9.548600e-001 0.000000e+000
      endloop
   endfacet
   facet normal 0.000000e+000 0.000000e+000 -1.000000e+000
      outer loop
         vertex 6.333468e-001 1.894490e-003 0.000000e+000
         vertex 6.321627e-001 9.548600e-001 0.000000e+000
         vertex 1.179123e+000 2.542846e-002 0.000000e+000
      endloop
   endfacet
   facet normal 0.000000e+000 0.000000e+000 -1.000000e+000
      outer loop
         vertex 1.179123e+000 2.542846e-002 0.000000e+000
         vertex 6.321627e-001 9.548600e-001 0.000000e+000
         vertex 8.667092e-001 1.093237e+000 0.000000e+000
      endloop
   endfacet
   facet normal 0.000000e+000 0.000000e+000 -1.000000e+000
      outer loop
         vertex 1.179123e+000 2.542846e-002 0.000000e+000
         vertex 8.667092e-001 1.093237e+000 0.000000e+000
         vertex 1.137445e+000 1.225502e+000 0.000000e+000
      endloop
   endfacet
   facet normal 0.000000e+000 0.000000e+000 -1.000000e+000
      outer loop
         vertex 8.597955e-002 2.419220e-002 0.000000e+000
         vertex 5.362412e-002 3.315717e-002 0.000000e+000
         vertex 6.043722e-003 8.528193e-002 0.000000e+000
      endloop
   endfacet
   facet normal 0.000000e+000 0.000000e+000 -1.000000e+000
      outer loop
         vertex 8.597955e-002 2.419220e-002 0.000000e+000
         vertex 6.043722e-003 8.528193e-002 0.000000e+000
         vertex 1.857777e-001 1.256728e-002 0.000000e+000
      endloop
   endfacet
   facet normal 0.000000e+000 0.000000e+000 -1.000000e+000
      outer loop
         vertex 1.857777e-001 1.256728e-002 0.000000e+000
         vertex 6.043722e-003 8.528193e-002 0.000000e+000
         vertex 4.862978e-003 9.212922e-002 0.000000e+000
      endloop
   endfacet
   facet normal 0.000000e+000 0.000000e+000 -1.000000e+000
      outer loop
         vertex 1.857777e-001 1.256728e-002 0.000000e+000
         vertex 4.862978e-003 9.212922e-002 0.000000e+000
         vertex 7.504609e-004 1.484191e-001 0.000000e+000
      endloop
   endfacet
   facet normal 0.000000e+000 0.000000e+000 -1.000000e+000
      outer loop
         vertex 7.504609e-004 1.484191e-001 0.000000e+000
         vertex 2.655839e-003 1.809185e-001 0.000000e+000
         vertex 1.857777e-001 1.256728e-002 0.000000e+000
      endloop
   endfacet
   facet normal 0.000000e+000 0.000000e+000 -1.000000e+000
      outer loop
         vertex 1.857777e-001 1.256728e-002 0.000000e+000
         vertex 2.655839e-003 1.809185e-001 0.000000e+000
         vertex 4.542687e-003 1.955321e-001 0.000000e+000
      endloop
   endfacet
   facet normal 0.000000e+000 0.000000e+000 -1.000000e+000
      outer loop
         vertex 1.857777e-001 1.256728e-002 0.000000e+000
         vertex 4.542687e-003 1.955321e-001 0.000000e+000
         vertex 2.310254e-002 2.727670e-001 0.000000e+000
      endloop
   endfacet
   facet normal 0.000000e+000 0.000000e+000 -1.000000e+000
      outer loop
         vertex 5.362412e-002 3.315717e-002 0.000000e+000
         vertex 3.597997e-002 4.068068e-002 0.000000e+000
         vertex 6.043722e-003 8.528193e-002 0.000000e+000
      endloop
   endfacet
   facet normal 0.000000e+000 0.000000e+000 -1.000000e+000
      outer loop
         vertex 6.043722e-003 8.528193e-002 0.000000e+000
         vertex 3.597997e-002 4.068068e-002 0.000000e+000
         vertex 2.491883e-002 4.728163e-002 0.000000e+000
      endloop
   endfacet
   facet normal 0.000000e+000 0.000000e+000 -1.000000e+000
      outer loop
         vertex 6.043722e-003 8.528193e-002 0.000000e+000
         vertex 2.491883e-002 4.728163e-002 0.000000e+000
         vertex 1.088563e-002 6.645758e-002 0.000000e+000
      endloop
   endfacet
   facet normal 0.000000e+000 0.000000e+000 -1.000000e+000
      outer loop
         vertex 2.310254e-002 2.727670e-001 0.000000e+000
         vertex 7.216837e-002 3.925535e-001 0.000000e+000
         vertex 1.857777e-001 1.256728e-002 0.000000e+000
      endloop
   endfacet
   facet normal 0.000000e+000 0.000000e+000 -1.000000e+000
      outer loop
         vertex 1.857777e-001 1.256728e-002 0.000000e+000
         vertex 7.216837e-002 3.925535e-001 0.000000e+000
         vertex 1.588830e-001 5.330507e-001 0.000000e+000
      endloop
   endfacet
   facet normal 0.000000e+000 0.000000e+000 -1.000000e+000
      outer loop
         vertex 1.857777e-001 1.256728e-002 0.000000e+000
         vertex 1.588830e-001 5.330507e-001 0.000000e+000
         vertex 2.689230e-001 6.644962e-001 0.000000e+000
      endloop
   endfacet
   facet normal 0.000000e+000 0.000000e+000 -1.000000e+000
      outer loop
         vertex 1.088563e-002 6.645758e-002 0.000000e+000
         vertex 2.491883e-002 4.728163e-002 0.000000e+000
         vertex 1.404812e-002 5.902895e-002 0.000000e+000
      endloop
   endfacet
   facet normal 0.000000e+000 0.000000e+000 -1.000000e+000
      outer loop
         vertex 1.404812e-002 5.902895e-002 0.000000e+000
         vertex 2.491883e-002 4.728163e-002 0.000000e+000
         vertex 1.941952e-002 5.179136e-002 0.000000e+000
      endloop
   endfacet
   facet normal 0.000000e+000 0.000000e+000 -1.000000e+000
      outer loop
         vertex 1.404812e-002 5.902895e-002 0.000000e+000
         vertex 1.941952e-002 5.179136e-002 0.000000e+000
         vertex 1.649155e-002 5.510412e-002 0.000000e+000
      endloop
   endfacet
   facet normal 0.000000e+000 0.000000e+000 1.000000e+000
      outer loop
         vertex 1.021512e+001 5.249857e-001 6.250039e-002
         vertex 1.081797e+001 4.398464e-001 6.250039e-002
         vertex 1.042930e+001 6.580631e-001 6.250039e-002
      endloop
   endfacet
   facet normal 0.000000e+000 0.000000e+000 1.000000e+000
      outer loop
         vertex 1.042930e+001 6.580631e-001 6.250039e-002
         vertex 1.081797e+001 4.398464e-001 6.250039e-002
         vertex 1.114655e+001 4.606338e-001 6.250039e-002
      endloop
   endfacet
   facet normal 0.000000e+000 0.000000e+000 1.000000e+000
      outer loop
         vertex 1.114655e+001 4.606338e-001 6.250039e-002
         vertex 1.081797e+001 4.398464e-001 6.250039e-002
         vertex 1.135007e+001 3.411626e-001 6.250039e-002
      endloop
   endfacet
   facet normal 0.000000e+000 0.000000e+000 1.000000e+000
      outer loop
         vertex 1.114655e+001 4.606338e-001 6.250039e-002
         vertex 1.135007e+001 3.411626e-001 6.250039e-002
         vertex 1.170119e+001 2.867996e-001 6.250039e-002
      endloop
   endfacet
   facet normal 0.000000e+000 0.000000e+000 1.000000e+000
      outer loop
         vertex 1.170119e+001 2.867996e-001 6.250039e-002
         vertex 1.135007e+001 3.411626e-001 6.250039e-002
         vertex 1.186799e+001 2.183273e-001 6.250039e-002
      endloop
   endfacet
   facet normal 0.000000e+000 0.000000e+000 1.000000e+000
      outer loop
         vertex 1.170119e+001 2.867996e-001 6.250039e-002
         vertex 1.186799e+001 2.183273e-001 6.250039e-002
         vertex 1.200301e+001 1.809185e-001 6.250039e-002
      endloop
   endfacet
   facet normal 0.000000e+000 0.000000e+000 1.000000e+000
      outer loop
         vertex 1.021512e+001 5.249857e-001 6.250039e-002
         vertex 1.042930e+001 6.580631e-001 6.250039e-002
         vertex 9.549908e+000 5.913281e-001 6.250039e-002
      endloop
   endfacet
   facet normal 0.000000e+000 0.000000e+000 1.000000e+000
      outer loop
         vertex 9.549908e+000 5.913281e-001 6.250039e-002
         vertex 1.042930e+001 6.580631e-001 6.250039e-002
         vertex 9.566328e+000 8.670875e-001 6.250039e-002
      endloop
   endfacet
   facet normal 0.000000e+000 0.000000e+000 1.000000e+000
      outer loop
         vertex 9.549908e+000 5.913281e-001 6.250039e-002
         vertex 9.566328e+000 8.670875e-001 6.250039e-002
         vertex 8.831059e+000 6.353543e-001 6.250039e-002
      endloop
   endfacet
   facet normal 0.000000e+000 0.000000e+000 1.000000e+000
      outer loop
         vertex 8.831059e+000 6.353543e-001 6.250039e-002
         vertex 9.566328e+000 8.670875e-001 6.250039e-002
         vertex 8.594438e+000 1.073687e+000 6.250039e-002
      endloop
   endfacet
   facet normal 0.000000e+000 0.000000e+000 1.000000e+000
      outer loop
         vertex 8.831059e+000 6.353543e-001 6.250039e-002
         vertex 8.594438e+000 1.073687e+000 6.250039e-002
         vertex 8.056916e+000 6.544233e-001 6.250039e-002
      endloop
   endfacet
   facet normal 0.000000e+000 0.000000e+000 1.000000e+000
      outer loop
         vertex 8.056916e+000 6.544233e-001 6.250039e-002
         vertex 8.594438e+000 1.073687e+000 6.250039e-002
         vertex 7.513881e+000 1.274436e+000 6.250039e-002
      endloop
   endfacet
   facet normal 0.000000e+000 0.000000e+000 1.000000e+000
      outer loop
         vertex 8.056916e+000 6.544233e-001 6.250039e-002
         vertex 7.513881e+000 1.274436e+000 6.250039e-002
         vertex 7.239409e+000 6.461326e-001 6.250039e-002
      endloop
   endfacet
   facet normal 0.000000e+000 0.000000e+000 1.000000e+000
      outer loop
         vertex 7.239409e+000 6.461326e-001 6.250039e-002
         vertex 7.513881e+000 1.274436e+000 6.250039e-002
         vertex 6.372908e+000 6.086154e-001 6.250039e-002
      endloop
   endfacet
   facet normal 0.000000e+000 0.000000e+000 1.000000e+000
      outer loop
         vertex 6.372908e+000 6.086154e-001 6.250039e-002
         vertex 7.513881e+000 1.274436e+000 6.250039e-002
         vertex 6.275304e+000 1.474044e+000 6.250039e-002
      endloop
   endfacet
   facet normal 0.000000e+000 0.000000e+000 1.000000e+000
      outer loop
         vertex 6.372908e+000 6.086154e-001 6.250039e-002
         vertex 6.275304e+000 1.474044e+000 6.250039e-002
         vertex 5.420993e+000 5.365083e-001 6.250039e-002
      endloop
   endfacet
   facet normal 0.000000e+000 0.000000e+000 1.000000e+000
      outer loop
         vertex 6.275304e+000 1.474044e+000 6.250039e-002
         vertex 5.360348e+000 1.598640e+000 6.250039e-002
         vertex 5.420993e+000 5.365083e-001 6.250039e-002
      endloop
   endfacet
   facet normal 0.000000e+000 0.000000e+000 1.000000e+000
      outer loop
         vertex 5.420993e+000 5.365083e-001 6.250039e-002
         vertex 5.360348e+000 1.598640e+000 6.250039e-002
         vertex 4.686519e+000 1.669597e+000 6.250039e-002
      endloop
   endfacet
   facet normal 0.000000e+000 0.000000e+000 1.000000e+000
      outer loop
         vertex 5.420993e+000 5.365083e-001 6.250039e-002
         vertex 4.686519e+000 1.669597e+000 6.250039e-002
         vertex 4.459814e+000 4.350156e-001 6.250039e-002
      endloop
   endfacet
   facet normal 0.000000e+000 0.000000e+000 1.000000e+000
      outer loop
         vertex 4.686519e+000 1.669597e+000 6.250039e-002
         vertex 4.016975e+000 1.713192e+000 6.250039e-002
         vertex 4.459814e+000 4.350156e-001 6.250039e-002
      endloop
   endfacet
   facet normal 0.000000e+000 0.000000e+000 1.000000e+000
      outer loop
         vertex 4.459814e+000 4.350156e-001 6.250039e-002
         vertex 4.016975e+000 1.713192e+000 6.250039e-002
         vertex 3.555253e+000 1.721357e+000 6.250039e-002
      endloop
   endfacet
   facet normal 0.000000e+000 0.000000e+000 1.000000e+000
      outer loop
         vertex 4.459814e+000 4.350156e-001 6.250039e-002
         vertex 3.555253e+000 1.721357e+000 6.250039e-002
         vertex 3.432221e+000 3.006687e-001 6.250039e-002
      endloop
   endfacet
   facet normal 0.000000e+000 0.000000e+000 1.000000e+000
      outer loop
         vertex 3.432221e+000 3.006687e-001 6.250039e-002
         vertex 3.555253e+000 1.721357e+000 6.250039e-002
         vertex 3.104010e+000 1.701501e+000 6.250039e-002
      endloop
   endfacet
   facet normal 0.000000e+000 0.000000e+000 1.000000e+000
      outer loop
         vertex 3.432221e+000 3.006687e-001 6.250039e-002
         vertex 3.104010e+000 1.701501e+000 6.250039e-002
         vertex 2.697968e+000 1.949976e-001 6.250039e-002
      endloop
   endfacet
   facet normal 0.000000e+000 0.000000e+000 1.000000e+000
      outer loop
         vertex 3.104010e+000 1.701501e+000 6.250039e-002
         vertex 2.659632e+000 1.652244e+000 6.250039e-002
         vertex 2.697968e+000 1.949976e-001 6.250039e-002
      endloop
   endfacet
   facet normal 0.000000e+000 0.000000e+000 1.000000e+000
      outer loop
         vertex 2.697968e+000 1.949976e-001 6.250039e-002
         vertex 2.659632e+000 1.652244e+000 6.250039e-002
         vertex 2.238005e+000 1.576034e+000 6.250039e-002
      endloop
   endfacet
   facet normal 0.000000e+000 0.000000e+000 1.000000e+000
      outer loop
         vertex 2.697968e+000 1.949976e-001 6.250039e-002
         vertex 2.238005e+000 1.576034e+000 6.250039e-002
         vertex 2.050781e+000 1.046979e-001 6.250039e-002
      endloop
   endfacet
   facet normal 0.000000e+000 0.000000e+000 1.000000e+000
      outer loop
         vertex 2.050781e+000 1.046979e-001 6.250039e-002
         vertex 2.238005e+000 1.576034e+000 6.250039e-002
         vertex 1.831822e+000 1.474701e+000 6.250039e-002
      endloop
   endfacet
   facet normal 0.000000e+000 0.000000e+000 1.000000e+000
      outer loop
         vertex 2.050781e+000 1.046979e-001 6.250039e-002
         vertex 1.831822e+000 1.474701e+000 6.250039e-002
         vertex 1.454902e+000 4.485810e-002 6.250039e-002
      endloop
   endfacet
   facet normal 0.000000e+000 0.000000e+000 1.000000e+000
      outer loop
         vertex 1.454902e+000 4.485810e-002 6.250039e-002
         vertex 1.831822e+000 1.474701e+000 6.250039e-002
         vertex 1.464403e+000 1.356660e+000 6.250039e-002
      endloop
   endfacet
   facet normal 0.000000e+000 0.000000e+000 1.000000e+000
      outer loop
         vertex 1.454902e+000 4.485810e-002 6.250039e-002
         vertex 1.464403e+000 1.356660e+000 6.250039e-002
         vertex 1.179123e+000 2.542846e-002 6.250039e-002
      endloop
   endfacet
   facet normal 0.000000e+000 0.000000e+000 1.000000e+000
      outer loop
         vertex 1.464403e+000 1.356660e+000 6.250039e-002
         vertex 1.137445e+000 1.225502e+000 6.250039e-002
         vertex 1.179123e+000 2.542846e-002 6.250039e-002
      endloop
   endfacet
   facet normal 0.000000e+000 0.000000e+000 1.000000e+000
      outer loop
         vertex 1.179123e+000 2.542846e-002 6.250039e-002
         vertex 1.137445e+000 1.225502e+000 6.250039e-002
         vertex 8.667092e-001 1.093237e+000 6.250039e-002
      endloop
   endfacet
   facet normal 0.000000e+000 0.000000e+000 1.000000e+000
      outer loop
         vertex 1.179123e+000 2.542846e-002 6.250039e-002
         vertex 8.667092e-001 1.093237e+000 6.250039e-002
         vertex 6.333468e-001 1.894490e-003 6.250039e-002
      endloop
   endfacet
   facet normal 0.000000e+000 0.000000e+000 1.000000e+000
      outer loop
         vertex 6.333468e-001 1.894490e-003 6.250039e-002
         vertex 8.667092e-001 1.093237e+000 6.250039e-002
         vertex 6.321627e-001 9.548600e-001 6.250039e-002
      endloop
   endfacet
   facet normal 0.000000e+000 0.000000e+000 1.000000e+000
      outer loop
         vertex 6.333468e-001 1.894490e-003 6.250039e-002
         vertex 6.321627e-001 9.548600e-001 6.250039e-002
         vertex 3.221312e-001 3.228224e-003 6.250039e-002
      endloop
   endfacet
   facet normal 0.000000e+000 0.000000e+000 1.000000e+000
      outer loop
         vertex 3.221312e-001 3.228224e-003 6.250039e-002
         vertex 6.321627e-001 9.548600e-001 6.250039e-002
         vertex 4.144545e-001 7.975696e-001 6.250039e-002
      endloop
   endfacet
   facet normal 0.000000e+000 0.000000e+000 1.000000e+000
      outer loop
         vertex 3.221312e-001 3.228224e-003 6.250039e-002
         vertex 4.144545e-001 7.975696e-001 6.250039e-002
         vertex 1.857777e-001 1.256728e-002 6.250039e-002
      endloop
   endfacet
   facet normal 0.000000e+000 0.000000e+000 1.000000e+000
      outer loop
         vertex 1.857777e-001 1.256728e-002 6.250039e-002
         vertex 4.144545e-001 7.975696e-001 6.250039e-002
         vertex 2.689230e-001 6.644962e-001 6.250039e-002
      endloop
   endfacet
   facet normal 0.000000e+000 0.000000e+000 1.000000e+000
      outer loop
         vertex 1.857777e-001 1.256728e-002 6.250039e-002
         vertex 2.689230e-001 6.644962e-001 6.250039e-002
         vertex 1.588830e-001 5.330507e-001 6.250039e-002
      endloop
   endfacet
   facet normal 0.000000e+000 0.000000e+000 1.000000e+000
      outer loop
         vertex 3.597997e-002 4.068068e-002 6.250039e-002
         vertex 5.362412e-002 3.315717e-002 6.250039e-002
         vertex 6.043722e-003 8.528193e-002 6.250039e-002
      endloop
   endfacet
   facet normal 0.000000e+000 0.000000e+000 1.000000e+000
      outer loop
         vertex 4.542687e-003 1.955321e-001 6.250039e-002
         vertex 2.655839e-003 1.809185e-001 6.250039e-002
         vertex 1.857777e-001 1.256728e-002 6.250039e-002
      endloop
   endfacet
   facet normal 0.000000e+000 0.000000e+000 1.000000e+000
      outer loop
         vertex 1.857777e-001 1.256728e-002 6.250039e-002
         vertex 2.655839e-003 1.809185e-001 6.250039e-002
         vertex 7.504609e-004 1.484191e-001 6.250039e-002
      endloop
   endfacet
   facet normal 0.000000e+000 0.000000e+000 1.000000e+000
      outer loop
         vertex 3.597997e-002 4.068068e-002 6.250039e-002
         vertex 6.043722e-003 8.528193e-002 6.250039e-002
         vertex 2.491883e-002 4.728163e-002 6.250039e-002
      endloop
   endfacet
   facet normal 0.000000e+000 0.000000e+000 1.000000e+000
      outer loop
         vertex 7.504609e-004 1.484191e-001 6.250039e-002
         vertex 4.862978e-003 9.212922e-002 6.250039e-002
         vertex 1.857777e-001 1.256728e-002 6.250039e-002
      endloop
   endfacet
   facet normal 0.000000e+000 0.000000e+000 1.000000e+000
      outer loop
         vertex 1.857777e-001 1.256728e-002 6.250039e-002
         vertex 4.862978e-003 9.212922e-002 6.250039e-002
         vertex 6.043722e-003 8.528193e-002 6.250039e-002
      endloop
   endfacet
   facet normal 0.000000e+000 0.000000e+000 1.000000e+000
      outer loop
         vertex 1.857777e-001 1.256728e-002 6.250039e-002
         vertex 6.043722e-003 8.528193e-002 6.250039e-002
         vertex 8.597955e-002 2.419220e-002 6.250039e-002
      endloop
   endfacet
   facet normal 0.000000e+000 0.000000e+000 1.000000e+000
      outer loop
         vertex 8.597955e-002 2.419220e-002 6.250039e-002
         vertex 6.043722e-003 8.528193e-002 6.250039e-002
         vertex 5.362412e-002 3.315717e-002 6.250039e-002
      endloop
   endfacet
   facet normal 0.000000e+000 0.000000e+000 1.000000e+000
      outer loop
         vertex 1.588830e-001 5.330507e-001 6.250039e-002
         vertex 7.216837e-002 3.925535e-001 6.250039e-002
         vertex 1.857777e-001 1.256728e-002 6.250039e-002
      endloop
   endfacet
   facet normal 0.000000e+000 0.000000e+000 1.000000e+000
      outer loop
         vertex 1.857777e-001 1.256728e-002 6.250039e-002
         vertex 7.216837e-002 3.925535e-001 6.250039e-002
         vertex 2.310254e-002 2.727670e-001 6.250039e-002
      endloop
   endfacet
   facet normal 0.000000e+000 0.000000e+000 1.000000e+000
      outer loop
         vertex 1.857777e-001 1.256728e-002 6.250039e-002
         vertex 2.310254e-002 2.727670e-001 6.250039e-002
         vertex 4.542687e-003 1.955321e-001 6.250039e-002
      endloop
   endfacet
   facet normal 0.000000e+000 0.000000e+000 1.000000e+000
      outer loop
         vertex 6.043722e-003 8.528193e-002 6.250039e-002
         vertex 1.088563e-002 6.645758e-002 6.250039e-002
         vertex 2.491883e-002 4.728163e-002 6.250039e-002
      endloop
   endfacet
   facet normal 0.000000e+000 0.000000e+000 1.000000e+000
      outer loop
         vertex 2.491883e-002 4.728163e-002 6.250039e-002
         vertex 1.088563e-002 6.645758e-002 6.250039e-002
         vertex 1.404812e-002 5.902895e-002 6.250039e-002
      endloop
   endfacet
   facet normal 0.000000e+000 0.000000e+000 1.000000e+000
      outer loop
         vertex 2.491883e-002 4.728163e-002 6.250039e-002
         vertex 1.404812e-002 5.902895e-002 6.250039e-002
         vertex 1.941952e-002 5.179136e-002 6.250039e-002
      endloop
   endfacet
   facet normal 0.000000e+000 0.000000e+000 1.000000e+000
      outer loop
         vertex 1.941952e-002 5.179136e-002 6.250039e-002
         vertex 1.404812e-002 5.902895e-002 6.250039e-002
         vertex 1.649155e-002 5.510412e-002 6.250039e-002
      endloop
   endfacet
endsolid